<svg xmlns="http://www.w3.org/2000/svg" width="748.7" height="429.023" viewBox="0 0 748.7 429.023"><defs><style>.a{fill:#0c305e;}.b{fill:#263238;}.c{fill:#2c4158;}.d{fill:#e0e0e0;}.e{fill:#ff725e;}.f{fill:#455a64;}.g{fill:#fafafa;}.h{opacity:0.3;}.i{opacity:0.4;}.j{fill:#fff;}.k{fill:#ffbe9d;}.l{fill:#eb996e;}.m{fill:#ebebeb;}.n{fill:#f5f5f5;}</style></defs><g transform="translate(48.8 -45.585)"><path class="a" d="M610.42,81.11c-60.18-36.73-145.52-28.67-194.6,22-17.22,17.76-29.72,39.54-45.71,58.43S332.88,197,308.19,198.67c-22.55,1.51-43.8-9.6-65.84-14.62-43.09-9.81-91,5.65-120.23,38.8S83.55,305.47,98.68,347s54.09,73.4,97.79,80l358.71-.68C620.47,399.69,679.63,333,691,263.43S670.6,117.84,610.42,81.11Z"/><path class="b" d="M699.9,456.59c0,.14-149.95.26-334.89.26s-334.92-.12-334.92-.26S180,456.33,365,456.33,699.9,456.44,699.9,456.59Z"/><rect class="b" width="14.83" height="30.01" transform="translate(568.2 426.58)"/><rect class="b" width="14.83" height="30.01" transform="translate(187.59 426.58)"/><path class="c" d="M220,240.5H200.7A23.23,23.23,0,0,0,177.76,260l-15.58,95.71a32.75,32.75,0,0,0,32.3,38H598.16a18.76,18.76,0,0,0,18.13-23.49h0a18.74,18.74,0,0,0-18.13-14h0a28.21,28.21,0,0,1-26.71-19.2l-24.91-73.9a29,29,0,0,0-27.14-19.71Z"/><path class="c" d="M136.4,356.46v57.32a16.74,16.74,0,0,0,16.79,16.7H600.73a16.75,16.75,0,0,0,16.79-16.7L616.9,367Z"/><path class="d" d="M556.21,291.28s-.28.22-.83.62l-2.46,1.81c-.55.39-1.14.86-1.83,1.3l-2.29,1.47c-.83.52-1.7,1.11-2.67,1.69L543,299.93a102.391,102.391,0,0,1-17,7.45,110.7,110.7,0,0,1-24,5.16,108.229,108.229,0,0,1-29.72-1.27c-1.31-.27-2.63-.58-4-.87l-2-.45-2-.54c-2.67-.71-5.35-1.58-8.06-2.5-5.4-1.85-10.83-4.1-16.37-6.47-11.07-4.71-22.54-10.13-35.15-13.64a143.7,143.7,0,0,0-79.9.65c-12.54,3.77-24.14,8.85-35.47,13s-22.42,7.28-33.13,8.29a74.83,74.83,0,0,1-15.5-.11,60.71,60.71,0,0,1-7.2-1.32l-1.73-.44-1.68-.53c-1.12-.36-2.23-.68-3.28-1.12A98,98,0,0,1,215,299.76c-3.64-1.9-7-3.82-10.17-5.56a122.489,122.489,0,0,0-16.68-8,55.629,55.629,0,0,0-11.34-2.83l-3-.24-1-.09h1c.65,0,1.7.08,3,.19a53.6,53.6,0,0,1,11.4,2.74A120,120,0,0,1,205,294c3.18,1.72,6.55,3.63,10.18,5.52a98.245,98.245,0,0,0,11.8,5.36c1.05.44,2.15.75,3.26,1.11l1.67.52,1.72.43a60.234,60.234,0,0,0,7.15,1.3,74.812,74.812,0,0,0,15.42.08c10.65-1,21.74-4.13,33-8.31s22.9-9.21,35.48-13a144,144,0,0,1,80.18-.65c12.67,3.53,24.16,9,35.21,13.69,5.53,2.37,10.95,4.63,16.33,6.48,2.7.92,5.37,1.79,8,2.5l2,.54,2,.45c1.32.29,2.64.6,3.94.87a107.89,107.89,0,0,0,29.6,1.33,110.838,110.838,0,0,0,24-5.07,103.149,103.149,0,0,0,17-7.35L546,298c1-.56,1.86-1.15,2.69-1.66l2.3-1.44c.7-.44,1.29-.91,1.84-1.29l2.49-1.76C555.91,291.47,556.21,291.28,556.21,291.28Z"/><path class="d" d="M614.08,340.32l-1.23-.37-1.5-.47a20.994,20.994,0,0,0-2.1-.58A61.3,61.3,0,0,0,595,337a82.479,82.479,0,0,0-10.4.51c-1.9.17-3.85.51-5.9.81s-4.14.76-6.31,1.27c-4.33,1-8.92,2.25-13.72,3.79s-9.83,3.34-15.09,5.25-10.79,3.92-16.62,5.79a148.686,148.686,0,0,1-18.47,4.8c-1.62.27-3.26.58-4.93.77-.83.1-1.67.22-2.51.31l-2.54.21c-1.7.17-3.42.14-5.16.22l-2.61-.05h-1.31l-1.31-.1a94.069,94.069,0,0,1-21.25-4.16c-7.11-2.16-14.17-5-21.36-7.88s-14.53-5.89-22.21-8.29a116.83,116.83,0,0,0-24-4.9,151.777,151.777,0,0,0-25.25-.29c-17.06,1.13-33.47,4.47-49.22,7.85-7.88,1.7-15.6,3.44-23.21,5s-15.08,2.89-22.42,3.94a215.7,215.7,0,0,1-21.57,2.07c-3.51.21-7,.17-10.38.19-3.41-.15-6.77-.19-10-.55a106.411,106.411,0,0,1-35.41-9c-5.11-2.33-9.72-5-14.14-7.47a113.712,113.712,0,0,0-12.77-6.29,37.9,37.9,0,0,0-22.27-2.57,26.609,26.609,0,0,0-7.77,2.84,22.263,22.263,0,0,0-2.75,1.85c-.39.33-.79.6-1.12.92l-.93.92a15.834,15.834,0,0,0-1.42,1.65,10.139,10.139,0,0,0-.89,1.28c-.46.72-.7,1.08-.7,1.08s.21-.38.65-1.11a9,9,0,0,1,.88-1.3,15.493,15.493,0,0,1,1.4-1.67c.3-.29.6-.61.93-.93s.73-.61,1.12-.94a20.731,20.731,0,0,1,2.76-1.89,26.69,26.69,0,0,1,7.8-2.9A38,38,0,0,1,175,330.5a113.142,113.142,0,0,1,12.82,6.27c4.43,2.42,9,5.12,14.14,7.42a105.92,105.92,0,0,0,35.29,8.92c3.27.36,6.62.39,10,.53,3.4,0,6.85,0,10.35-.2a214.882,214.882,0,0,0,21.52-2.09c7.33-1.05,14.8-2.4,22.39-4s15.32-3.32,23.21-5c15.75-3.38,32.18-6.73,49.29-7.87a152.749,152.749,0,0,1,25.33.29,117.682,117.682,0,0,1,24.09,4.93c7.71,2.42,15.05,5.43,22.24,8.32s14.24,5.73,21.32,7.88a93.27,93.27,0,0,0,21.14,4.16l1.3.11h3.9c1.72-.08,3.44,0,5.13-.22l2.53-.2c.83-.08,1.66-.21,2.49-.31,1.66-.18,3.29-.49,4.92-.76A147.523,147.523,0,0,0,526.84,354c5.82-1.86,11.34-3.86,16.61-5.75s10.3-3.71,15.12-5.23,9.41-2.78,13.76-3.75c2.17-.51,4.29-.88,6.33-1.25s4-.63,5.92-.8A82.215,82.215,0,0,1,595,336.8a60.371,60.371,0,0,1,14.28,2,17.4,17.4,0,0,1,2.09.61l1.5.49Z"/><path class="d" d="M519.41,242.27l-.64.58-1.93,1.7c-.88.7-2,1.53-3.33,2.5a42.889,42.889,0,0,1-4.86,3,66.126,66.126,0,0,1-14.49,5.7c-1.46.39-3,.73-4.59,1.07s-3.24.64-4.95.85a98,98,0,0,1-10.88,1,160.465,160.465,0,0,1-25-1.35c-8.93-1.06-18.41-2.61-28.45-3.74-5-.56-10.17-1-15.45-1.17a154.289,154.289,0,0,0-16.16.4A330.341,330.341,0,0,0,355,257.33c-11.48,2.05-22.68,4.17-33.59,5.67a256.262,256.262,0,0,1-31.64,2.26,250.38,250.38,0,0,1-53.38-5.38,245.894,245.894,0,0,1-34.77-10.07c-2-.76-3.78-1.41-5.31-2l-3.84-1.61-2.36-1c-.53-.23-.79-.36-.79-.36s.28.09.81.31l2.38,1,3.86,1.56c1.53.59,3.32,1.23,5.32,2a252.247,252.247,0,0,0,34.77,9.9,251.772,251.772,0,0,0,53.3,5.26,255.366,255.366,0,0,0,31.58-2.29c10.9-1.5,22.09-3.62,33.57-5.67a327.19,327.19,0,0,1,33.75-4.59c5.49-.41,10.91-.49,16.2-.38s10.47.61,15.5,1.18c10.05,1.15,19.52,2.72,28.44,3.79a160.224,160.224,0,0,0,24.91,1.41,97.74,97.74,0,0,0,10.84-.93c1.71-.2,3.34-.54,4.94-.82s3.11-.67,4.58-1.06a66.322,66.322,0,0,0,14.47-5.59c1.9-1,3.47-2,4.86-2.9s2.47-1.78,3.35-2.46l2-1.65A5.54,5.54,0,0,1,519.41,242.27Z"/><path class="d" d="M616.13,402.26s-.41-.14-1.2-.45l-3.5-1.38c-.75-.33-1.65-.56-2.62-.87l-3.19-1c-1.16-.34-2.44-.58-3.79-.91l-2.1-.48c-.73-.14-1.48-.24-2.26-.37a98.847,98.847,0,0,0-22.77-1.06,171,171,0,0,0-29.87,4.74c-10.93,2.56-22.64,6.33-35.28,10.14s-26.28,7.68-41.05,9.56a115.622,115.622,0,0,1-22.79.76,89.7,89.7,0,0,1-23.29-4.8c-15.36-5.31-29.6-14.36-44.81-22.16a137.719,137.719,0,0,0-23.36-9.69c-2-.66-4-1.07-6-1.59l-3-.6-1.51-.29-1.52-.23A106.282,106.282,0,0,0,330,380.44a134.247,134.247,0,0,0-23.68,1.36,192.766,192.766,0,0,0-22.29,4.58c-14.35,3.79-27.65,8.55-40.27,12.45s-24.56,7-35.72,8.52a109.607,109.607,0,0,1-30.25,0A79.058,79.058,0,0,1,155.9,401a64.08,64.08,0,0,1-12.33-7.52c-2.54-2.11-3.81-3.3-3.81-3.3s.34.27,1,.82,1.59,1.38,2.88,2.4A66.318,66.318,0,0,0,156,400.85a79.448,79.448,0,0,0,21.88,6.25A109.28,109.28,0,0,0,208,407c11.11-1.51,23.05-4.61,35.63-8.56s25.9-8.69,40.28-12.51a190.863,190.863,0,0,1,22.35-4.6,135,135,0,0,1,23.76-1.38,105.3,105.3,0,0,1,12.19,1.16l1.53.22,1.52.3,3.05.6c2,.52,4.06.93,6,1.59a138.649,138.649,0,0,1,23.46,9.72c15.23,7.82,29.46,16.86,44.74,22.15a89.49,89.49,0,0,0,23.15,4.79,115.529,115.529,0,0,0,22.7-.75c14.72-1.86,28.34-5.74,41-9.49s24.36-7.55,35.32-10.09a170.073,170.073,0,0,1,29.93-4.67,98.817,98.817,0,0,1,22.83,1.15c.77.13,1.53.24,2.26.38l2.1.5c1.35.33,2.63.58,3.79.93l3.19,1a25.469,25.469,0,0,1,2.62.9l3.48,1.43Z"/><path class="c" d="M578.88,309.83h18.94A19.07,19.07,0,0,1,616.9,328.9v50.21a13.79,13.79,0,0,1-13.79,13.79H584.17a24.35,24.35,0,0,1-24.35-24.35V328.9a19.07,19.07,0,0,1,19.06-19.07Z"/><path class="c" d="M155.47,309.83h18.94a19.07,19.07,0,0,1,19.07,19.07v64H160.75a24.35,24.35,0,0,1-24.35-24.35V328.9A19.07,19.07,0,0,1,155.47,309.83Z"/><path class="b" d="M196.65,357h55.04c34,0,80.94.26,132.79.59l187.82,1H517.26c-34,0-80.94-.25-132.81-.58Z"/><path class="b" d="M193.49,430.48a1.6,1.6,0,0,1,0-.35c0-.27,0-.62,0-1.06,0-.95,0-2.3-.08-4-.06-3.54-.14-8.61-.24-14.86-.2-12.54-.43-29.87-.95-49-.34-9.56-.45-18.7-1.75-26.88a38.259,38.259,0,0,0-3.4-11.15,21,21,0,0,0-6.52-7.67,28.71,28.71,0,0,0-13.38-5.89,17.632,17.632,0,0,0-2.31-.11,11.531,11.531,0,0,0-1.69.19l-1,.27a1.291,1.291,0,0,1-.35.07,1.65,1.65,0,0,1,.34-.12l1-.32c.46-.08,1-.18,1.7-.24a15.824,15.824,0,0,1,2.34.06,28.53,28.53,0,0,1,13.58,5.79,21.36,21.36,0,0,1,6.68,7.77,38.609,38.609,0,0,1,3.5,11.27c1.33,8.23,1.45,17.38,1.79,26.95.52,19.13.69,36.46.8,49,0,6.25.06,11.31.07,14.85v5.05a2.454,2.454,0,0,1-.13.38Z"/><path class="b" d="M164.35,331.63a10.171,10.171,0,0,0-1.61.35,7.35,7.35,0,0,0-3.58,2.47,7.1,7.1,0,0,0-1.35,2.69,6.2,6.2,0,0,0,.16,3.4,6.71,6.71,0,0,0,12.37,1.36,6.15,6.15,0,0,0,.89-3.28,7.06,7.06,0,0,0-.72-2.92,7.46,7.46,0,0,0-3-3.2c-.92-.51-1.51-.63-1.49-.68a1.411,1.411,0,0,1,.43.07,5.4,5.4,0,0,1,1.16.43,7.37,7.37,0,0,1,3.19,3.21,7.23,7.23,0,0,1,.83,3.07,6.55,6.55,0,0,1-.9,3.55,7.18,7.18,0,0,1-13.25-1.46,6.51,6.51,0,0,1-.11-3.65,7.269,7.269,0,0,1,1.47-2.82,7.4,7.4,0,0,1,3.82-2.44,5.251,5.251,0,0,1,1.23-.17,1.441,1.441,0,0,1,.46.02Z"/><path class="b" d="M159.22,357.19a4.45,4.45,0,0,1-.54-1.81,11.12,11.12,0,0,1,2.44-8.58c.77-.89,1.37-1.3,1.41-1.25a14.44,14.44,0,0,1-1.12,1.48,12.86,12.86,0,0,0-1.91,4,12.73,12.73,0,0,0-.45,4.36,15.863,15.863,0,0,1,.17,1.8Z"/><path class="b" d="M155,343.11c-.13-.05.13-.85.86-1.53s1.55-.88,1.59-.75-.58.52-1.23,1.13S155.09,343.18,155,343.11Z"/><path class="b" d="M180.6,342.18c-.07.05-.46-.42-1.26-1a8,8,0,0,0-7.2-1.01,15.479,15.479,0,0,1-1.48.6,3.911,3.911,0,0,1,1.34-.94,7.3,7.3,0,0,1,7.57,1.06C180.35,341.58,180.65,342.15,180.6,342.18Z"/><path class="b" d="M236.37,240.66a1,1,0,0,1-.29.05l-.84.1c-.75.08-1.85.16-3.28.23-2.84.16-7,.09-12.05.12a56.281,56.281,0,0,0-17.54,2.54,17.75,17.75,0,0,0-4.5,2.35,13.76,13.76,0,0,0-3.55,3.88c-1.92,3.08-2.8,6.82-3.44,10.62-2.3,15.34-4.38,29.23-5.89,39.32-.78,5-1.4,9.06-1.84,11.91-.23,1.38-.4,2.46-.53,3.24l-.15.84a1.24,1.24,0,0,1-.07.28,1.269,1.269,0,0,1,0-.29,7,7,0,0,1,.1-.85l.42-3.25c.41-2.85,1-6.92,1.68-11.93,1.45-10.08,3.44-24,5.75-39.36.65-3.82,1.53-7.62,3.52-10.8a14.14,14.14,0,0,1,3.68-4,18.141,18.141,0,0,1,4.64-2.4,55.539,55.539,0,0,1,17.7-2.46c5.09,0,9.2.14,12.05,0,1.42,0,2.52-.08,3.27-.13h.85Z"/><path class="b" d="M572.27,356.46c-.14,0-1.71-8.07-3.5-18.07s-3.13-18.13-3-18.15,1.71,8.06,3.5,18.06S572.41,356.43,572.27,356.46Z"/><path class="b" d="M574.27,430.48a1.6,1.6,0,0,1,0-.35,7.242,7.242,0,0,0-.06-1.05c0-.95-.09-2.3-.16-4-.12-3.53-.29-8.57-.49-14.79-.37-12.51-.88-29.75-1.44-48.79,0-1.19-.09-2.37-.07-3.55s0-2.35,0-3.51q0-3.48.14-6.86a128.2,128.2,0,0,1,1-12.94,55,55,0,0,1,1.13-5.95c.21-1,.54-1.88.82-2.79a21.615,21.615,0,0,1,1.11-2.6,17.466,17.466,0,0,1,1.43-2.33,21,21,0,0,1,1.74-2,23.17,23.17,0,0,1,18-6.76,15.091,15.091,0,0,1,3.9,1l1,.45.31.17a17.57,17.57,0,0,0-5.18-1.43,22.52,22.52,0,0,0-13.93,3.77,22.119,22.119,0,0,0-3.75,3.08,19.832,19.832,0,0,0-1.68,1.94,17,17,0,0,0-1.38,2.29,20.119,20.119,0,0,0-1.08,2.55c-.27.9-.59,1.8-.8,2.75a53.773,53.773,0,0,0-1.1,5.91c-.55,4.08-.8,8.4-1,12.89-.06,2.24-.1,4.53-.13,6.85v3.5c0,1.18.05,2.36.07,3.55.5,19,1,36.28,1.28,48.79.14,6.22.26,11.27.33,14.79,0,1.72,0,3.07.07,4v1.05A1.347,1.347,0,0,1,574.27,430.48Z"/><path class="b" d="M595.81,333.61a9.119,9.119,0,0,0-1.6.34,7.43,7.43,0,0,0-3.59,2.48,6.829,6.829,0,0,0-1.34,2.68,6.14,6.14,0,0,0,.15,3.41,6.73,6.73,0,0,0,12.38,1.36,6.17,6.17,0,0,0,.88-3.29,7.1,7.1,0,0,0-.72-2.92,7.371,7.371,0,0,0-3-3.19c-.91-.52-1.51-.63-1.49-.69a1.41,1.41,0,0,1,.43.07,4.871,4.871,0,0,1,1.16.44,7.47,7.47,0,0,1,4,6.28,6.519,6.519,0,0,1-.9,3.54A7.18,7.18,0,0,1,589,342.66a6.51,6.51,0,0,1-.11-3.65,7.48,7.48,0,0,1,5.29-5.26,5.308,5.308,0,0,1,1.23-.17A1.21,1.21,0,0,1,595.81,333.61Z"/><path class="b" d="M590.68,359.17a4.532,4.532,0,0,1-.54-1.81,11.12,11.12,0,0,1,2.44-8.59,4.411,4.411,0,0,1,1.41-1.25,14.441,14.441,0,0,1-1.12,1.48,13.207,13.207,0,0,0-1.87,4,12.763,12.763,0,0,0-.45,4.37,15.686,15.686,0,0,1,.13,1.8Z"/><path class="b" d="M586.42,345.08c-.13-.05.13-.85.86-1.52s1.55-.89,1.59-.76-.58.52-1.23,1.14S586.55,345.15,586.42,345.08Z"/><path class="b" d="M612.06,344.15c-.07.06-.46-.42-1.25-1a8.19,8.19,0,0,0-3.49-1.37,8.05,8.05,0,0,0-3.72.36,12.774,12.774,0,0,1-1.48.6,4.077,4.077,0,0,1,1.34-.94,7.35,7.35,0,0,1,7.57,1.06C611.81,343.55,612.11,344.12,612.06,344.15Z"/><g transform="translate(-620)"><path class="e" d="M651.35,334.3a64.35,64.35,0,0,1,61.39-16.85,111.85,111.85,0,0,1-62.12,19.41"/><path class="e" d="M672.17,260.56c-2.56-18.09,4.47-38.45,18-51.6.44,17.93-7.12,38.11-18,51.6"/><path class="e" d="M661.34,294.73a96.62,96.62,0,0,1,44.37-42.4c-5.66,20.83-23.48,37.87-44.54,42.6"/><path class="e" d="M659.09,301.33c10.93.31,22-.08,32.56-2.88s20.69-8.17,27.72-16.54a108.83,108.83,0,0,0-60.11,18.35"/><path class="e" d="M664.64,279.61c-5.55-20.79-14.7-35.17-31-46.82a43.23,43.23,0,0,0,31,46.82"/><path class="e" d="M623.39,315.46a30.79,30.79,0,0,1,18.7-28.5c-.91,10.73-9.34,23.15-18.7,28.5"/><path class="e" d="M618.17,297.93c-1.24-17.36-13.58-33.43-30-39.11,3.78,17.37,13.82,31.83,30,39.11"/><path class="e" d="M626,329c-3.85-5.52-10.14-8.94-16.65-10.65s-13.3-1.85-20-2a46.82,46.82,0,0,0,36.17,15.06"/><path class="e" d="M633.85,373.35A51.28,51.28,0,0,0,571.2,403c22.76-4.32,45.21-14.43,62.65-29.68"/><path class="e" d="M658.83,358c-3.78,11.17-3.06,24.68,5.35,34.31A41,41,0,0,0,658.83,358"/><path class="e" d="M673.59,351.74a42,42,0,0,0,23.22,34.11,2.63,2.63,0,0,0,2.06.34c1-.42,1.11-1.81,1-2.91-1.65-14.32-12.26-28.17-26.27-31.54"/><path class="e" d="M683.24,350.29a34.46,34.46,0,0,0,50.36.25c-16-1.75-34.48-2.92-50.36-.25"/><path class="b" d="M685.63,222.3a3.541,3.541,0,0,1-.14.47c-.12.33-.29.78-.49,1.35-.46,1.22-1.1,3-1.93,5.18s-1.86,5-3,8.22c-.58,1.61-1.2,3.33-1.86,5.14s-1.29,3.77-2,5.8c-2.83,8.1-6,17.83-9.38,28.67S660,300,656.52,312.61s-6.42,24.77-9,35.83-4.65,21.08-6.19,29.53l-1.14,6c-.32,1.91-.63,3.7-.92,5.39-.58,3.36-1.07,6.26-1.41,8.63s-.64,4.19-.84,5.47c-.09.6-.17,1.07-.23,1.42a3.709,3.709,0,0,1-.1.48,2.612,2.612,0,0,1,0-.49c0-.35.1-.82.17-1.43.17-1.28.42-3.12.73-5.48s.76-5.29,1.31-8.66c.27-1.68.56-3.49.87-5.4s.71-3.91,1.09-6c1.5-8.46,3.6-18.48,6.07-29.57s5.54-23.21,8.94-35.87,7-24.64,10.35-35.49,6.63-20.55,9.52-28.65q1.07-3,2-5.78t1.9-5.12c1.18-3.21,2.21-6,3.1-8.19l2-5.14c.23-.57.41-1,.55-1.34a2.058,2.058,0,0,1,.34-.45Z"/><path class="b" d="M597.69,268.09a2.311,2.311,0,0,1,.28.26l.76.81c.67.71,1.64,1.78,2.85,3.18A111.548,111.548,0,0,1,611,284.91,84.777,84.777,0,0,1,620.86,306c2.64,8.39,4.28,17.93,5.91,27.91,3.26,20,7.25,37.84,10.15,50.77,1.45,6.44,2.64,11.66,3.46,15.31.4,1.78.71,3.18.93,4.17.09.45.16.81.22,1.09a1.707,1.707,0,0,1,.06.37,1.621,1.621,0,0,1-.12-.36c-.07-.27-.17-.63-.28-1.07-.25-1-.6-2.37-1-4.14-.87-3.65-2.12-8.85-3.66-15.27-3-12.91-7.06-30.79-10.32-50.77-1.63-10-3.25-19.49-5.85-27.84a85.182,85.182,0,0,0-9.68-21,122.214,122.214,0,0,0-9.24-12.64c-1.18-1.43-2.12-2.52-2.76-3.26l-.72-.84a1.618,1.618,0,0,1-.27-.34Z"/><path class="b" d="M688,349.61a2.54,2.54,0,0,1-.58.1l-1.66.19-1.19.11-1.42.22c-1,.15-2.17.3-3.44.58l-2,.39-2.13.54c-1.48.34-3,.88-4.65,1.37a68.416,68.416,0,0,0-10.14,4.47,56.858,56.858,0,0,0-9.08,6.31,43.313,43.313,0,0,0-3.49,3.35,37.361,37.361,0,0,0-2.76,3.18,32.82,32.82,0,0,0-2,2.82,20.134,20.134,0,0,0-1.4,2.22l-.85,1.44a2,2,0,0,1-.34.48,2.1,2.1,0,0,1,.23-.54l.75-1.49a18,18,0,0,1,1.32-2.3,29.814,29.814,0,0,1,2-2.89,33.99,33.99,0,0,1,2.73-3.27,43.542,43.542,0,0,1,3.48-3.42,55,55,0,0,1,9.17-6.43,64.407,64.407,0,0,1,10.25-4.46c1.65-.49,3.2-1,4.7-1.33l2.16-.51,2-.36c1.27-.25,2.44-.37,3.47-.49l1.43-.17,1.2-.06,1.67-.07A2,2,0,0,1,688,349.61Z"/><path class="b" d="M692.58,268.48a8.663,8.663,0,0,1-1.16,1.11l-3.29,2.86c-2.8,2.39-6.7,5.66-11,9.25s-8.27,6.81-11.14,9.12l-3.42,2.71a7.156,7.156,0,0,1-1.3.92,8.086,8.086,0,0,1,1.15-1.11l3.3-2.86c2.8-2.39,6.69-5.66,11-9.25s8.26-6.81,11.13-9.11l3.42-2.71A7.444,7.444,0,0,1,692.58,268.48Z"/><path class="b" d="M696.51,289.66c0,.16-8.35,2.78-18.77,5.86s-18.9,5.44-19,5.28,8.36-2.79,18.78-5.87S696.47,289.49,696.51,289.66Z"/><path class="b" d="M665.47,281.22a7.008,7.008,0,0,1-.86-1.2c-.6-.9-1.34-2-2.22-3.38-1.88-2.84-4.55-6.72-7.7-10.85s-6.2-7.73-8.44-10.3l-2.67-3a7,7,0,0,1-.93-1.16,6.9,6.9,0,0,1,1.11,1c.68.67,1.64,1.66,2.81,2.91,2.33,2.5,5.43,6.07,8.6,10.22s5.79,8.08,7.58,11c.9,1.45,1.6,2.64,2.06,3.48A6.783,6.783,0,0,1,665.47,281.22Z"/><path class="b" d="M636.28,293a29,29,0,0,1-2,3.24c-1.26,2-3,4.72-4.73,7.82s-3.25,6-4.31,8.06a25.008,25.008,0,0,1-1.78,3.35,20.644,20.644,0,0,1,1.39-3.54c1-2.14,2.4-5.05,4.17-8.17s3.54-5.84,4.9-7.76A20,20,0,0,1,636.28,293Z"/><path class="b" d="M626.29,329.61a46.535,46.535,0,0,1-4.27-1.88c-2.63-1.18-6.29-2.72-10.43-4.18s-8-2.52-10.76-3.23-4.53-1.11-4.52-1.2a5.33,5.33,0,0,1,1.26.13c.8.12,1.94.34,3.36.64A93.951,93.951,0,0,1,611.79,323a92,92,0,0,1,10.41,4.36c1.3.64,2.33,1.19,3,1.6A5.608,5.608,0,0,1,626.29,329.61Z"/><path class="b" d="M634.15,373.41a1.811,1.811,0,0,1-.51.18l-1.52.38-5.59,1.3a183.936,183.936,0,0,0-18.26,4.81,81.16,81.16,0,0,0-17,8c-2,1.3-3.62,2.44-4.69,3.27a19.2,19.2,0,0,1-1.69,1.25,3.543,3.543,0,0,1,.37-.4,11.225,11.225,0,0,1,1.17-1,48.462,48.462,0,0,1,4.61-3.44,74.368,74.368,0,0,1,17.07-8.22,152.008,152.008,0,0,1,18.37-4.67l5.63-1.1A14.776,14.776,0,0,1,634.15,373.41Z"/><path class="b" d="M662.59,384.21c-.17,0-1.17-5.87-2.24-13.17s-1.79-13.23-1.63-13.26,1.17,5.87,2.24,13.17S662.76,384.18,662.59,384.21Z"/><path class="b" d="M692.19,373.46a32.3,32.3,0,0,1-2.66-3.17c-1.6-2-3.82-4.73-6.33-7.72s-4.83-5.64-6.51-7.56a29.42,29.42,0,0,1-2.66-3.17,7.422,7.422,0,0,1,.84.73c.51.5,1.25,1.23,2.14,2.15,1.77,1.85,4.15,4.47,6.66,7.46s4.68,5.78,6.2,7.85c.76,1,1.36,1.87,1.75,2.47A4.1,4.1,0,0,1,692.19,373.46Z"/><path class="b" d="M613.85,400.92v14.63h3.66l13,41.04h28.83l12.6-40.64,4.88-.4V400.92Z"/><path class="f" d="M674.38,416c0,.17-12.73.31-28.44.31s-28.43-.14-28.43-.31,12.73-.3,28.43-.3S674.38,415.78,674.38,416Z"/><path class="b" d="M695.12,321.86a12.652,12.652,0,0,1-1.85.5l-5.06,1.22c-4.27,1.05-10.12,2.66-16.48,4.79s-12,4.4-16,6.14l-4.77,2.09a11.359,11.359,0,0,1-1.77.71,13.69,13.69,0,0,1,1.67-.93c1.09-.57,2.7-1.35,4.7-2.27a166.332,166.332,0,0,1,32.58-10.95c2.15-.48,3.9-.83,5.11-1A11.156,11.156,0,0,1,695.12,321.86Z"/><path class="g" d="M664.81,438.74c0,.17-8.94.31-19.95.31s-20-.14-20-.31,8.93-.3,20-.3S664.81,438.57,664.81,438.74Z"/><path class="g" d="M665.93,435.35c0,.17-9.47.31-21.15.31s-21.14-.14-21.14-.31,9.47-.31,21.14-.31S665.93,435.18,665.93,435.35Z"/></g><path class="b" d="M439.25,268.88a3.57,3.57,0,0,1,1.82-3.22,8.38,8.38,0,0,1,3.56-1.24,5,5,0,0,1,1.39,0c.41.06.73.36.74.61l-1.82.82c-2.09,1-3.47,1.88-5.69,3"/><path class="b" d="M462.87,262.48a5,5,0,0,0-7.85.85Z"/><path class="b" d="M474,266.81a4.58,4.58,0,0,0-1.45-2.14,1.89,1.89,0,0,0-2.24,0,2.08,2.08,0,0,0-1.64,2.16,4.45,4.45,0,0,0,.8,2,.94.94,0,0,0,.36.38.92.92,0,0,0,.81-.14l3.17-1.64a.392.392,0,0,0,.19-.62Z"/><path class="b" d="M442.8,271.42a3.29,3.29,0,0,0-2.19-.12,3.39,3.39,0,0,0-1.53.78l2.25.55c1,.24,2.87.75,2.87.75a2.24,2.24,0,0,0-1.4-1.96Z"/><path class="e" d="M428.53,219.39S400.46,230.65,394,247.57c-3.94,10.32.39,39.62.39,39.62l3.67-1,7.71,38.69L462,333.54l36.11-15.77L485.4,262.84l22.27-1.42s-17.17-36.34-28.55-40.53c-5-1.84-15.35-3-24.49-2.71a103.61,103.61,0,0,0-16,1.43Z"/><g class="h"><path d="M422,321c5-.31,9.08-4.16,12.06-8.21s5.46-8.63,9.46-11.67c3.72-2.81,8.4-4,12.32-6.54,2.32-1.5,4.35-3.45,6.73-4.84s5.36-2.2,7.93-1.18c1.83.73,3.29,2.32,5.21,2.74,2.5.55,4.92-1,7.42-1.54,3.61-.77,7.28,1.17,9.42,4.17l-3.3-14.27c-1.84-1.92-5.64-3.42-8.11-4.42A47.55,47.55,0,0,0,437.06,280a39.19,39.19,0,0,0-13.46,15.36,29.22,29.22,0,0,0-2,20.13"/></g><path class="b" d="M420.66,279.48a24.069,24.069,0,0,1-.75-3.42c-.39-2.12-.89-5.06-1.42-8.31s-1-6.2-1.28-8.34a23.5,23.5,0,0,1-.38-3.47,21.728,21.728,0,0,1,.75,3.41c.39,2.13.9,5.07,1.42,8.32s1,6.19,1.28,8.33a23.546,23.546,0,0,1,.38,3.48Z"/><path class="b" d="M478.29,239.29a86.767,86.767,0,0,1,2.34,9.23,88.167,88.167,0,0,1,1.83,9.35,88.9,88.9,0,0,1-2.34-9.23,87.659,87.659,0,0,1-1.83-9.35Z"/><path class="b" d="M486.5,303a2.331,2.331,0,0,1-.38.37l-1.14,1c-.5.43-1.12.95-1.87,1.51s-1.57,1.25-2.55,1.91-2,1.42-3.22,2.14-2.46,1.49-3.82,2.26a81.141,81.141,0,0,1-9.22,4.29,82.24,82.24,0,0,1-9.71,3c-1.53.33-3,.67-4.35.88s-2.65.42-3.82.56-2.24.22-3.18.3-1.74.12-2.4.12h-1.52a1.8,1.8,0,0,1-.53,0,2.262,2.262,0,0,1,.53-.08l1.51-.12a22.176,22.176,0,0,0,2.39-.21c.93-.11,2-.18,3.15-.38s2.44-.34,3.79-.62,2.8-.58,4.32-.92a79.129,79.129,0,0,0,18.81-7.24c1.36-.76,2.66-1.46,3.82-2.2s2.26-1.43,3.24-2.09,1.83-1.28,2.59-1.83,1.4-1,1.91-1.44l1.21-.93a2.649,2.649,0,0,1,.44-.28Z"/><path class="b" d="M472.22,293.13a6.068,6.068,0,0,1-.57,1.2,15.339,15.339,0,0,1-.78,1.36c-.32.52-.66,1.12-1.11,1.74a42.1,42.1,0,0,1-3.33,4.24,45.927,45.927,0,0,1-4.8,4.53,44.5,44.5,0,0,1-5.44,3.73,40.809,40.809,0,0,1-4.85,2.37c-.7.31-1.36.52-1.93.72a14.241,14.241,0,0,1-1.49.47,5.569,5.569,0,0,1-1.29.31c0-.09,1.79-.62,4.57-1.84a46.125,46.125,0,0,0,4.74-2.44,44.44,44.44,0,0,0,10.13-8.18,48.137,48.137,0,0,0,3.39-4.12C471.24,294.75,472.13,293.08,472.22,293.13Z"/><path class="e" d="M531.12,431.53l5.57,38.11c.36,2.28,2.19,5.22,5.2,4.95l43-7.13s2.14-4.11-24.36-7.82l-4.84-32.31Z"/><g class="i"><path class="j" d="M531.12,431.53l5.57,38.11c.36,2.28,2.19,5.22,5.2,4.95l43-7.13s2.14-4.11-24.36-7.82l-4.84-32.31Z"/></g><path class="j" d="M573,461.83a14,14,0,0,0-1.45,3.76,16.518,16.518,0,0,0,.25,4,2.76,2.76,0,0,1-.44-1.13,7.563,7.563,0,0,1-.19-3,7,7,0,0,1,1-2.76,2.921,2.921,0,0,1,.83-.87Z"/><path class="j" d="M536.65,466.91a1.5,1.5,0,0,1,.35-.61,3.24,3.24,0,0,1,1.66-1,7.79,7.79,0,0,1,2.84-.08,14,14,0,0,1,3.39.79,8.831,8.831,0,0,1,3,1.83,6.94,6.94,0,0,1,1.63,2.33,5.439,5.439,0,0,1,.44,1.87,1.78,1.78,0,0,1,0,.7,7.891,7.891,0,0,0-.64-2.46,7.2,7.2,0,0,0-1.63-2.18,8.88,8.88,0,0,0-2.86-1.73,15.082,15.082,0,0,0-3.29-.79,8.14,8.14,0,0,0-2.74,0,3.35,3.35,0,0,0-1.61.82A4.894,4.894,0,0,0,536.65,466.91Z"/><path class="j" d="M559.12,448.43a5.168,5.168,0,0,1-.9.36c-.59.21-1.44.49-2.5.83-2.12.69-5.07,1.58-8.35,2.49s-6.26,1.65-8.43,2.16l-2.58.57a5.351,5.351,0,0,1-1,.15,4.872,4.872,0,0,1,.93-.3l2.54-.69,8.4-2.27,8.37-2.37,2.53-.72a4.328,4.328,0,0,1,.99-.21Z"/><path class="e" d="M447.2,406l14.89,35.51c.87,2.14.82,5.61-1.9,6.93L419.67,464.5s-3.95-2.42,16.83-19.27L424,415.07Z"/><g class="i"><path class="j" d="M447.2,406l14.89,35.51c.87,2.14.82,5.61-1.9,6.93L419.67,464.5s-3.95-2.42,16.83-19.27L424,415.07Z"/></g><path class="j" d="M426.92,453.56a13.518,13.518,0,0,1,3.19,2.47,16.589,16.589,0,0,1,1.87,3.59,3,3,0,0,0-.21-1.21,7.581,7.581,0,0,0-1.36-2.62,7.089,7.089,0,0,0-2.33-1.83,3,3,0,0,0-1.16-.4Z"/><path class="j" d="M460.72,439.14a1.541,1.541,0,0,0-.62-.35,3.27,3.27,0,0,0-1.92,0,7.85,7.85,0,0,0-2.48,1.4,14.189,14.189,0,0,0-2.49,2.43,8.631,8.631,0,0,0-1.6,3.09,6.93,6.93,0,0,0-.2,2.84,5.29,5.29,0,0,0,.59,1.83,1.52,1.52,0,0,0,.41.57,7.55,7.55,0,0,1-.72-2.43,6.93,6.93,0,0,1,.26-2.71,9,9,0,0,1,1.57-3,14.873,14.873,0,0,1,2.4-2.37,7.93,7.93,0,0,1,2.34-1.43,3.32,3.32,0,0,1,1.8-.13C460.49,439,460.7,439.17,460.72,439.14Z"/><path class="b" d="M455,329.68s-25.65-8.16-34.26-8.86-23.09-2-28,6.29c-3.73,6.24-5.88,12.46-2.89,21.43,2.83,8.47,31.39,75.25,31.39,75.25L455,417.93l-17.95-60.54s22.93-1.65,26-1.88,46.73,6.12,46.73,6.12l20.3,88.11,33.48-3.41S551.79,343.05,548,332.08c-2.47-7.08-14.09-15.46-25.51-16.16s-24.4,1.85-24.4,1.85l-41.6,11.91"/><path class="f" d="M509.36,335.35a13.589,13.589,0,0,0-1.8,3.84,15.4,15.4,0,0,0-.46,4.56,36.726,36.726,0,0,0,.77,5.63c.81,4,1.51,7.59,2,10.2.22,1.23.4,2.27.55,3.11a5.09,5.09,0,0,1,.13,1.15,4.688,4.688,0,0,1-.33-1.11l-.71-3.07c-.57-2.6-1.33-6.2-2.14-10.18a34.678,34.678,0,0,1-.74-5.71,14.7,14.7,0,0,1,.59-4.69,9.741,9.741,0,0,1,1.38-2.86,3.37,3.37,0,0,1,.76-.87Z"/><path class="f" d="M501.09,345.06a22.79,22.79,0,0,1,.82,2.54,39.08,39.08,0,0,0,2.4,5.92,40.448,40.448,0,0,0,3.34,5.45,21.107,21.107,0,0,1,1.56,2.15,9.821,9.821,0,0,1-1.85-1.93,30.341,30.341,0,0,1-5.81-11.49A9.91,9.91,0,0,1,501.09,345.06Z"/><path class="f" d="M462.59,350.84a10.751,10.751,0,0,1-1.12-2.19c-.63-1.39-1.42-3.34-2.17-5.54s-1.34-4.22-1.71-5.7a11.14,11.14,0,0,1-.47-2.42,11.63,11.63,0,0,1,.82,2.32c.46,1.45,1.09,3.44,1.85,5.63s1.48,4.15,2,5.57A12.453,12.453,0,0,1,462.59,350.84Z"/><path class="f" d="M471.46,332a25.762,25.762,0,0,1-1.43,2.3,27.92,27.92,0,0,0-4,12.25c-.13,1.66-.11,2.7-.19,2.71a9.209,9.209,0,0,1-.17-2.73,23.76,23.76,0,0,1,4-12.43,9.27,9.27,0,0,1,1.79-2.1Z"/><path class="f" d="M451.43,343.39a27,27,0,0,0-12.35-11.2,8.531,8.531,0,0,1,2.37.85,21.131,21.131,0,0,1,5,3.39,20.689,20.689,0,0,1,3.86,4.69,8.3,8.3,0,0,1,1.12,2.27Z"/><path class="f" d="M428.58,338.47a16.683,16.683,0,0,1,1.77,2.63,69.808,69.808,0,0,1,3.59,6.75,71.6,71.6,0,0,1,2.85,7.1,17,17,0,0,1,.86,3.05,21.48,21.48,0,0,1-1.21-2.92c-.7-1.82-1.72-4.31-3-7S431,343,430,341.28A22.475,22.475,0,0,1,428.58,338.47Z"/><path class="f" d="M435.65,343.93a6.61,6.61,0,0,1,.82,2,25.291,25.291,0,0,1,1,5,24.652,24.652,0,0,1,0,5.15,6.639,6.639,0,0,1-.39,2.1c-.16,0,.28-3.24-.15-7.19S435.5,344,435.65,343.93Z"/><path class="f" d="M445.72,265.28s-10.73.46-10.73,6.44,4.14,19.15,9.65,16.54,3.07-10.54,7.36-11.32,13.48-2.46,14.7-.63,4.14,10.11,8,6.74,1.68-19.76,0-20.68S458.58,261.91,445.72,265.28Z"/><path class="b" d="M470,274.93a9.535,9.535,0,0,1-.28-1.32,11.53,11.53,0,0,0-1.14-3.41,4.2,4.2,0,0,0-4.34-2.22,16.158,16.158,0,0,0-3.09.69c-1.07.32-2.19.61-3.36.85a41,41,0,0,1-6.64.84,22.288,22.288,0,0,0-5.35.45,4.55,4.55,0,0,0-2.75,2.11,5.882,5.882,0,0,0-.41,1.25,1,1,0,0,1,0-.35,2.831,2.831,0,0,1,.25-1,4.65,4.65,0,0,1,2.81-2.37,20.931,20.931,0,0,1,5.45-.57,44.154,44.154,0,0,0,6.56-.88c1.15-.24,2.26-.52,3.32-.83a16,16,0,0,1,3.19-.68,4.89,4.89,0,0,1,2.93.6,4.81,4.81,0,0,1,1.77,1.92,10.451,10.451,0,0,1,1,3.56A4.772,4.772,0,0,1,470,274.93Z"/><path class="b" d="M465,262.05c-.07.06-.4-.33-1.09-.74a4.63,4.63,0,0,0-5.65.6c-.58.54-.83,1-.9.95s.08-.55.64-1.21a4.5,4.5,0,0,1,6.12-.64C464.8,261.53,465.05,262,465,262.05Z"/><path class="b" d="M474.68,262.84a46.545,46.545,0,0,0-4.47,2.1,45.638,45.638,0,0,0-3.93,3,12.06,12.06,0,0,1,8.4-5.09Z"/><path class="k" d="M448.88,278.3s.5-.62-.15-2.65-12.81-4.14-12.81-4.14a34.34,34.34,0,0,1,10.31-6.23s-.07-1.07-3.61-1.31-9.76,3.77-12.36,5.18-11.12,10.75-11.12,10.75l-21.07,5.49,6.06,35.6a58.45,58.45,0,0,1,16.64-.17c1.66.27,5.29-24.61,5.29-24.61a4.29,4.29,0,0,0,4.49,1.24c2.59-.94,8.25-10.53,8.25-10.53l5.69.56c3.54-1.88,3.17-4.25,3.17-4.25C452.68,281.59,448.88,278.3,448.88,278.3Z"/><path class="l" d="M439.27,272.16a8.539,8.539,0,0,1-2.16-.22,25.943,25.943,0,0,0-5.13-.38,7.31,7.31,0,0,0-2.61.87,18.643,18.643,0,0,0-2,1.22,20.006,20.006,0,0,1-1.74,1.28,5.781,5.781,0,0,1,1.52-1.57,13,13,0,0,1,2-1.35,7.32,7.32,0,0,1,2.79-1,19.669,19.669,0,0,1,5.25.54,9.441,9.441,0,0,1,2.08.61Z"/><path class="l" d="M431.47,278.34a7.76,7.76,0,0,1,1.95-1.85,7.63,7.63,0,0,1,1.19-.73,5.621,5.621,0,0,1,1.57-.35,16.179,16.179,0,0,1,3.58.12,26.069,26.069,0,0,1,6.28,1.61,8.861,8.861,0,0,1,2.39,1.2c0,.07-1-.34-2.52-.86a33.47,33.47,0,0,0-6.21-1.43c-2.45-.31-4.8-.37-6.07.74C432.28,277.7,431.53,278.4,431.47,278.34Z"/><path class="l" d="M432.54,284.19a10.377,10.377,0,0,1,1.3-2.08,5.23,5.23,0,0,1,2.2-1.62,5.53,5.53,0,0,1,3.31-.16A31.92,31.92,0,0,1,445,282a6.12,6.12,0,0,1,2.12,1.22c0,.07-.84-.39-2.26-.87a44.241,44.241,0,0,0-5.63-1.51,5.23,5.23,0,0,0-3.05.09,5,5,0,0,0-2.07,1.4,12.216,12.216,0,0,1-1.57,1.86Z"/><path class="l" d="M421.7,277.27a5.222,5.222,0,0,1-.72,1l-2.08,2.55c-1.75,2.16-4.11,5.19-6.54,8.66s-4.46,6.73-5.89,9.12l-1.67,2.83a6,6,0,0,1-.67,1,5.117,5.117,0,0,1,.49-1.12c.34-.7.86-1.7,1.54-2.91a107.875,107.875,0,0,1,5.77-9.24c2.44-3.48,4.86-6.49,6.68-8.6.92-1.05,1.67-1.88,2.22-2.44A5.283,5.283,0,0,1,421.7,277.27Z"/><path class="l" d="M438.38,269.56c-.09.11-.75-.46-.88-1.47s.38-1.72.5-1.64-.09.75,0,1.58S438.5,269.46,438.38,269.56Z"/><path class="k" d="M481.43,282.55c.2,1-1.22,10.8,6.11,16.5s11.82,10.39,16.1,7.34,8.15-12.23,6.52-18.75-11.44-25.49-11.44-25.49l-18.59.71Z"/><path class="k" d="M455.9,263.26s.38-6.73,2.87-7.47a7.55,7.55,0,0,1,6.47,1c1.62,1.12,5.73,1.87,5.73,1.87s10.47-.45,11.46.71,6.35,9.5,6.35,9.5l-2.86,12.33a14.841,14.841,0,0,1-7.72,3.12c-5,.62-9.34.62-9.34-2.12,0,0-3.74-2.05-3.74-3.89,0,0-4.73,1.15-5.11-1.53s9.34-3.8,9.34-3.8-1.74-1.6-.12-2.92,6.48-3.33,6.48-3.33.29-3.52-1.23-4.43C472.28,261,455.9,263.26,455.9,263.26Z"/><path class="l" d="M483.48,266.29a5.19,5.19,0,0,1-1.32,2.07,12.76,12.76,0,0,1-5,3.2,24.462,24.462,0,0,1-5.78,1.23,10.219,10.219,0,0,1-2.43.11,13.38,13.38,0,0,1,2.38-.48,31.479,31.479,0,0,0,5.65-1.35,13.79,13.79,0,0,0,4.89-3A20.3,20.3,0,0,0,483.48,266.29Z"/><path class="l" d="M480.18,274.66a5.75,5.75,0,0,1-1.85,1.51,15.721,15.721,0,0,1-5.43,2,30.605,30.605,0,0,1-5.74.39,9.84,9.84,0,0,1-2.37-.18,11.609,11.609,0,0,1,2.36-.19,44.213,44.213,0,0,0,5.66-.53,18.39,18.39,0,0,0,5.34-1.77C479.43,275.18,480.12,274.59,480.18,274.66Z"/><path class="l" d="M480.13,279.24a4,4,0,0,1-1.39,1,13.43,13.43,0,0,1-3.93,1.37,25.7,25.7,0,0,1-4.13.43A5.49,5.49,0,0,1,469,282c0-.18,2.61-.3,5.75-.87a17.881,17.881,0,0,0,3.87-1.19A9.691,9.691,0,0,1,480.13,279.24Z"/><path class="l" d="M477.88,263.6c.14,0,0,1-.75,1.9s-1.59,1.34-1.66,1.22.6-.69,1.24-1.53S477.74,263.55,477.88,263.6Z"/><path class="l" d="M463.54,258.4a2.31,2.31,0,0,1,.59,2.15c-.15,1.32-1,2.06-1.1,1.94a20.285,20.285,0,0,0,.59-2C463.77,259.36,463.4,258.47,463.54,258.4Z"/><path class="l" d="M464.88,262.33c0,.14-.45.15-.86-.11s-.59-.63-.48-.72.41.07.75.28S464.92,262.19,464.88,262.33Z"/><path class="l" d="M485.71,264.3a3.682,3.682,0,0,1,.57.85,14.106,14.106,0,0,1,1.21,2.51,7.759,7.759,0,0,1,.4,1.92,8.44,8.44,0,0,1-.21,2.22,3.07,3.07,0,0,0,0,1.09,11.824,11.824,0,0,0,.38,1.15,3.14,3.14,0,0,1,.16,1.37,5.332,5.332,0,0,1-.36,1.33,15.3,15.3,0,0,1-2.32,4.52,8.441,8.441,0,0,1-3.45,2.34,12.1,12.1,0,0,1-2.72.65,3.6,3.6,0,0,1-1,0,32.251,32.251,0,0,0,3.6-1,8.59,8.59,0,0,0,3.22-2.3,15.9,15.9,0,0,0,2.21-4.4,3.21,3.21,0,0,0,.19-2.36c-.12-.39-.29-.78-.38-1.21a3.33,3.33,0,0,1,0-1.26,8.322,8.322,0,0,0,.25-2.13,7.762,7.762,0,0,0-.32-1.82,17.939,17.939,0,0,0-1-2.54A4.591,4.591,0,0,1,485.71,264.3Z"/><path class="l" d="M486.49,266.16a5.34,5.34,0,0,1,.84.82l2.16,2.38,3.14,3.57c1.2,1.34,2.43,2.89,3.88,4.32a15.111,15.111,0,0,0,4.82,3.05,14.159,14.159,0,0,1,4.11,2.49,6,6,0,0,1,1.73,2.75,4.332,4.332,0,0,1,.11.88q0,.3,0,.3a3.549,3.549,0,0,0-.27-1.13,6,6,0,0,0-1.78-2.53,14.66,14.66,0,0,0-4.06-2.32,27,27,0,0,1-2.55-1.24,13,13,0,0,1-2.43-1.87c-1.5-1.48-2.7-3-3.88-4.38l-3.06-3.65c-.81-1-1.48-1.81-2-2.49a5.089,5.089,0,0,1-.76-.95Z"/><path class="k" d="M421.27,182.11l7.43,45a13.8,13.8,0,0,0,15,11.49h0a13.8,13.8,0,0,0,12.39-14.91l-.73-8.57s10.87-2.67,10.05-13.7c-.39-5.32-2.1-16.19-3.75-26a20.71,20.71,0,0,0-23.18-17.07h0a20.47,20.47,0,0,0-17.21,23.76Z"/><path class="l" d="M455.37,215.17a25.72,25.72,0,0,1-14.72-2.84s4.09,7.64,15,5.69Z"/><path class="b" d="M459,184.06a1.58,1.58,0,0,1-1.38,1.72,1.51,1.51,0,0,1-1.74-1.28,1.58,1.58,0,0,1,1.37-1.72,1.52,1.52,0,0,1,1.75,1.28Z"/><path class="b" d="M459.76,181.14c-.18.22-1.45-.56-3.14-.41s-2.86,1.11-3.06.92.06-.47.57-.91a4.37,4.37,0,0,1,2.43-1,4.13,4.13,0,0,1,2.52.58C459.64,180.68,459.85,181,459.76,181.14Z"/><path class="b" d="M442.44,186.19a1.58,1.58,0,0,1-1.38,1.71,1.51,1.51,0,0,1-1.75-1.27,1.58,1.58,0,0,1,1.38-1.72,1.51,1.51,0,0,1,1.75,1.28Z"/><path class="b" d="M443.14,182.9c-.18.22-1.45-.56-3.14-.41s-2.86,1.11-3.06.92.06-.47.57-.91a4.37,4.37,0,0,1,2.43-1,4.13,4.13,0,0,1,2.52.58C443,182.44,443.23,182.8,443.14,182.9Z"/><path class="b" d="M450.37,194.92a12.35,12.35,0,0,1,2.71-.73c.43-.08.83-.2.88-.51a2.25,2.25,0,0,0-.4-1.25L452,189.25c-2.19-4.54-3.81-8.28-3.62-8.37s2.1,3.52,4.28,8.06c.53,1.11,1,2.18,1.51,3.2a2.47,2.47,0,0,1,.37,1.68,1.07,1.07,0,0,1-.65.69,2.911,2.911,0,0,1-.73.17A10.7,10.7,0,0,1,450.37,194.92Z"/><path class="b" d="M445.49,196.53c.28,0,.44,1.8,2.13,3s3.62.8,3.66,1.06c0,.11-.41.39-1.23.49a4.62,4.62,0,0,1-3.05-.78,4,4,0,0,1-1.66-2.5C445.2,197,445.37,196.53,445.49,196.53Z"/><path class="b" d="M443.13,178.11c-.13.47-1.84.4-3.8.81s-3.53,1.09-3.83.7c-.13-.18.11-.64.72-1.14a6.76,6.76,0,0,1,5.81-1.16C442.79,177.55,443.18,177.88,443.13,178.11Z"/><path class="b" d="M457.38,174.43c-.26.42-1.46.15-2.86.29s-2.56.55-2.88.17c-.14-.18,0-.58.48-1a4.18,4.18,0,0,1,4.62-.38C457.28,173.85,457.49,174.23,457.38,174.43Z"/><path class="b" d="M432.19,169.18h-.05a8.7,8.7,0,0,0-2.74,5.89v.22c-.16,3.18.2,6.37,0,9.55s-1,6.47-3.13,8.83c-.88,1-2.52,1.73-3.39.76a2.69,2.69,0,0,1-.52-1.41c-1.25-7.54-3.9-14.09-4.58-22a6.71,6.71,0,0,1,2.31-5.68c1.56-1.34,3.48-2.75,5.4-2s4.61,4,6.17,5.31"/><path class="k" d="M425.43,187c-.2-.06-7.77-1.58-6.88,5.93s8.26,5.07,8.24,4.85S425.43,187,425.43,187Z"/><path class="l" d="M424.16,195.17a2,2,0,0,1-.33.23,1.28,1.28,0,0,1-1,.14,3.28,3.28,0,0,1-1.85-2.73,4.439,4.439,0,0,1,.14-1.91,1.56,1.56,0,0,1,.87-1.13.66.66,0,0,1,.81.27c.13.2.1.35.14.36s.15-.14,0-.45a.86.86,0,0,0-.35-.43,1,1,0,0,0-.75-.11,1.88,1.88,0,0,0-1.23,1.33,4.61,4.61,0,0,0-.2,2.15c.23,1.51,1.17,2.83,2.29,3a1.42,1.42,0,0,0,1.18-.35C424.17,195.35,424.19,195.18,424.16,195.17Z"/><path class="b" d="M424.67,165.77c-2.53-2.48,1.37-7.93,4.71-10s8.55-1.45,12.46-1.14c2.46.19,5,.68,7.35,0a16.85,16.85,0,0,0,4.36-2.34,12.36,12.36,0,0,1,4.47-2.09,4.56,4.56,0,0,1,4.47,1.5c1,1.33.61,3.59-.93,4.2a3.72,3.72,0,1,1,2.62,6.45c.84-1.05,2.77-.14,3,1.19a3.89,3.89,0,0,1-1.82,3.4c-2.73,2.1-6.4,2.56-9.84,2.27s-6.78-1.21-10.2-1.58-9.2-1.12-12.08.77c-2.11,1.39-3,4.59-4.5,4.3a4.64,4.64,0,0,1-3.14-2.73,13.09,13.09,0,0,1-.89-4.22"/><path class="f" d="M461.24,156.52a.784.784,0,0,1,.4.18,2.26,2.26,0,0,1,.9.87,3.21,3.21,0,0,1,.43,1.92,3.29,3.29,0,0,1-1.23,2.24,6.19,6.19,0,0,1-2.93,1.24,12.191,12.191,0,0,1-3.71,0,37.05,37.05,0,0,1-8.13-2.7,22.22,22.22,0,0,0-8.39-2,10,10,0,0,0-3.73.74,9.39,9.39,0,0,0-2.77,1.79,9.67,9.67,0,0,0-2.58,4,6.53,6.53,0,0,0-.36,1.71,10.794,10.794,0,0,1,.47-1.67,9.71,9.71,0,0,1,2.62-3.85,8.909,8.909,0,0,1,2.72-1.72,9.86,9.86,0,0,1,3.63-.69,22.45,22.45,0,0,1,8.27,2,36.122,36.122,0,0,0,8.21,2.7,12.35,12.35,0,0,0,3.79,0,6.37,6.37,0,0,0,3-1.33,4.09,4.09,0,0,0,.92-1.14,3.36,3.36,0,0,0-.15-3.25,2.18,2.18,0,0,0-1-.86A1.4,1.4,0,0,0,461.24,156.52Z"/><path class="f" d="M434.24,156.3a1.3,1.3,0,0,0-.49,0,6,6,0,0,0-1.27.41,7.36,7.36,0,0,0-4.45,7.08,6.051,6.051,0,0,0,.18,1.32c.08.31.15.47.17.46a12.119,12.119,0,0,1-.13-1.78,7.62,7.62,0,0,1,4.32-6.88C433.56,156.47,434.25,156.36,434.24,156.3Z"/><path class="f" d="M418.87,177.92a1.15,1.15,0,0,0,.63.09,3,3,0,0,0,1.64-.59,4.3,4.3,0,0,0,1.54-2.08,12.72,12.72,0,0,0,.64-3.09,12.228,12.228,0,0,1,.61-3,4.15,4.15,0,0,1,1.44-2,3.06,3.06,0,0,1,1.53-.61h.63a1.46,1.46,0,0,0-.63-.11,3,3,0,0,0-1.66.55,4.27,4.27,0,0,0-1.58,2,12.091,12.091,0,0,0-.66,3.08,12.82,12.82,0,0,1-.59,3,4.24,4.24,0,0,1-1.4,2,3.12,3.12,0,0,1-1.52.65A3.371,3.371,0,0,1,418.87,177.92Z"/><path class="f" d="M419.93,182.82h.19a3.281,3.281,0,0,0,.55,0,7.179,7.179,0,0,0,2-.42,9.13,9.13,0,0,0,4.83-4.4,13.49,13.49,0,0,0,1.38-6.47,5.819,5.819,0,0,1,0-1.12,1.35,1.35,0,0,1,.35-.73,1.13,1.13,0,0,1,.61-.32.74.74,0,0,0-.7.24,1.47,1.47,0,0,0-.43.78,5.318,5.318,0,0,0-.07,1.16,14,14,0,0,1-1.44,6.32,9.18,9.18,0,0,1-4.66,4.35,10.279,10.279,0,0,1-2.61.61Z"/><path class="k" d="M361.31,46.11l.13,2.49,1.42,5.85A11.1,11.1,0,0,0,361.28,58c-.13,1.37,5.46,9.28,5.46,9.28l15.68,5s2.73-2.72,1.09-5.72A18.6,18.6,0,0,0,379,61.4s3.28-1.91,1.37-3.13L378.47,57s-.14-3.83-2.18-4.17l-1.72-.28a3.93,3.93,0,0,0-3.33-2.78l-1.05.19s-1-2.42-2.91-2.65c-1.63-.19-1.63.14-1.63.14a3.23,3.23,0,0,0-4.34-1.34Z"/><path class="l" d="M372.89,58.36c-.05,0-.21-.42-.69-1.09a14.641,14.641,0,0,0-2.51-2.48,23.781,23.781,0,0,1-1.85-1.66,7.4,7.4,0,0,1-1.62-2.41c-.37-1-.4-2.06-.83-3A3,3,0,0,0,363,46.07a2.89,2.89,0,0,0-1.53.27l.14-.21a16.88,16.88,0,0,0,.92,5.68,40.774,40.774,0,0,0,1.68,4.4c.53,1.23,1,2.2,1.31,2.87a5.53,5.53,0,0,1,.46,1.06,4.641,4.641,0,0,1-.63-1c-.37-.65-.88-1.6-1.46-2.81a38.74,38.74,0,0,1-1.8-4.41,16.729,16.729,0,0,1-1-5.86V46l.13-.07a3.41,3.41,0,0,1,1.82-.33,3.45,3.45,0,0,1,2.84,2c.47,1.07.49,2.15.83,3a10.83,10.83,0,0,0,3.25,4,12.86,12.86,0,0,1,2.44,2.64,5.631,5.631,0,0,1,.43.88Q372.92,58.36,372.89,58.36Z"/><path class="l" d="M374.54,52.51c.06,0,.33.19.65.66a12,12,0,0,1,1,1.95,3,3,0,0,1,.33,2.24c-.23.6-.67.73-.68.66a2.717,2.717,0,0,0,.32-.77,3.34,3.34,0,0,0-.45-1.93C375.09,53.75,374.46,52.59,374.54,52.51Z"/><path class="l" d="M372.73,58.11a1.2,1.2,0,0,0,.37-.08.92.92,0,0,0,.57-.69,2.16,2.16,0,0,0-.24-1.42,19.353,19.353,0,0,0-1-1.68A24.79,24.79,0,0,1,370,49.77a25.88,25.88,0,0,1,2.86,4.2,15.559,15.559,0,0,1,1,1.75,2.44,2.44,0,0,1,.16,1.72,1.09,1.09,0,0,1-.89.78C372.85,58.25,372.71,58.13,372.73,58.11Z"/><path class="l" d="M378.3,56.74a2.391,2.391,0,0,1,.51,1.15,6.73,6.73,0,0,1,.21,1.35,7.469,7.469,0,0,1,0,.82,1.09,1.09,0,0,1-.52.92,1,1,0,0,1-1.06-.19,2.53,2.53,0,0,1-.54-.67,4.1,4.1,0,0,1-.5-1.3c-.16-.76-.17-1.23-.1-1.24s.21.44.45,1.14a5.36,5.36,0,0,0,.55,1.14c.25.39.66.81,1,.65s.27-.8.27-1.26a9.662,9.662,0,0,0-.09-1.29,5,5,0,0,1-.18-1.22Z"/><path class="l" d="M376.28,58c0,.06-.08.21-.34.33a1.65,1.65,0,0,1-2-.66c-.14-.25-.15-.44-.08-.47a5.456,5.456,0,0,0,1.13.68C375.64,58.09,376.21,57.9,376.28,58Z"/><path class="m" d="M303.11,327.39c-2.28-.85-6,.54-7,3.15-.71,1.94-3.23,10.33-3.23,10.33l14.56,2.24,4.27-11.68.49-1.05S305,328.08,303.11,327.39Z"/><path class="b" d="M275,272c-.45,1.29-37.62,64.87-34.93,80.54a26.91,26.91,0,0,0,4.44,11.2A15.88,15.88,0,0,0,260.89,370l53.54-11.59V344l-31.34-7.17s25.52-36.71,31.34-37.16,30,34.48,30,34.48S352.49,366,365,366s18.8,7.61,22.83-4.48-36.79-96.13-36.79-96.13Z"/><path class="b" d="M343.61,333l-29.56-5.09s-15.16,17.26.38,29l57.46,9.8"/><path class="f" d="M286.28,332.82c.09.07-1.09,1.55-2.46,4.27a96.471,96.471,0,0,0-4.3,11.09c-1.52,4.39-3.35,8.33-5.46,10.61-.26.29-.5.57-.74.82l-.74.64-.65.56c-.21.15-.42.27-.6.39a6.929,6.929,0,0,1-1.16.66,24.07,24.07,0,0,0,3.61-3.31c2-2.29,3.73-6.16,5.25-10.55a77.573,77.573,0,0,1,4.47-11.08,22.337,22.337,0,0,1,1.93-3.07A6.192,6.192,0,0,1,286.28,332.82Z"/><path class="f" d="M360.23,359.77a4.751,4.751,0,0,1-1.25-.36,15,15,0,0,1-3.15-1.64,22.29,22.29,0,0,1-7.45-8.93,41.11,41.11,0,0,1-3.24-11.22c-.23-1.48-.38-2.67-.46-3.51a5.71,5.71,0,0,1-.07-1.29,6.647,6.647,0,0,1,.27,1.27c.17.92.37,2.08.62,3.47a45.17,45.17,0,0,0,3.35,11.05,23.22,23.22,0,0,0,7.19,8.86A26.45,26.45,0,0,0,360.23,359.77Z"/><path class="f" d="M283,336.89a1.52,1.52,0,0,1,.49.06l1.37.3,5,1.12c4.25.95,10.13,2.19,16.66,3.37,3.19.58,6.24,1.09,9,1.53h.22v.22c-.34,4.3-.63,8-.85,10.69-.12,1.25-.21,2.27-.29,3.06a5.219,5.219,0,0,1-.15,1.08,5.118,5.118,0,0,1,0-1.1c0-.78.09-1.81.15-3.06.17-2.71.39-6.4.66-10.71l.21.26c-2.79-.42-5.85-.92-9.05-1.49-6.54-1.19-12.41-2.49-16.64-3.53-2.11-.51-3.82-1-5-1.28l-1.35-.39a2.635,2.635,0,0,1-.43-.13Z"/><path class="f" d="M343.61,345.1a10.94,10.94,0,0,1-1.2-5.9,10.65,10.65,0,0,1,1.69-5.77,26.089,26.089,0,0,0-1.17,5.79,27.84,27.84,0,0,0,.68,5.88Z"/><path class="m" d="M315.48,343.51l8.13.22c.36.41,4.34-4,7.82-1.49.68.48,8.9,15.27,8.9,15.27l4.28,4.52L322,358.17l-7.47-.46Z"/><path class="e" d="M265.77,171.73s-9.41,7.73-10.75,18c-1,7.79-2.87,40-2.87,40s-4.55,15.39-2.84,19.9,9.1,13.14,9.1,13.14l17-9.79L273.35,233l2.86-31.16Z"/><path class="e" d="M265.77,171.73c0,1.34,14.2,63.05,14.2,63.05l-10.45,42.06s18.82,16.21,39.92,15.31S357,275.86,357,275.86s-12.75-28.74-14.31-45c-1.79-18.61-3.27-64.3-3.27-64.3l-29.08-7-24.67.83Z"/><path class="g" d="M351.32,262.82a4,4,0,0,1-.53.64c-.36.39-.88,1-1.61,1.72a56.627,56.627,0,0,1-6.57,5.69,61.61,61.61,0,0,1-11.11,6.55,66.087,66.087,0,0,1-7.13,2.7,60.092,60.092,0,0,1-8,1.81,54.94,54.94,0,0,1-15.78.07,49.148,49.148,0,0,1-12.43-3.41,38.76,38.76,0,0,1-7.59-4.24,22,22,0,0,1-1.86-1.46,4.54,4.54,0,0,1-.62-.55,5.347,5.347,0,0,1,.68.47,23.252,23.252,0,0,0,1.92,1.37,41.359,41.359,0,0,0,7.61,4.07,50.371,50.371,0,0,0,12.35,3.28,55.139,55.139,0,0,0,15.64-.12,60.625,60.625,0,0,0,7.92-1.78A65.158,65.158,0,0,0,331.3,277a63.149,63.149,0,0,0,11.09-6.41A60.93,60.93,0,0,0,349,265c.76-.69,1.3-1.27,1.69-1.65a6.779,6.779,0,0,1,.63-.53Z"/><g class="h"><path d="M273,279c2,1.48,4.79,1.42,7.15.62a50,50,0,0,0,6.65-3.37c7.84-4.07,17.12-4.42,25.22-7.93,3.64-1.57,7.49-4.78,6.73-8.68a6.7,6.7,0,0,0-4.25-4.63,17.16,17.16,0,0,0-6.46-.91c-11.78,0-23.42,2.36-35,4.7-2.67.54-5.48,1.15-7.47,3s-2.67,5.39-.67,7.23"/></g><path class="e" d="M365.28,64.83l-.67,6.29-44.45,85.71c-3.39-1.25-6.16,0-8.39,3.31l1.62,9.75L340,189.07c3.12-16.81,23.48-68.16,42.91-116.17Z"/><path class="b" d="M270.24,192.18c.14,0,2.43,9.48,5.12,21.24s4.75,21.32,4.6,21.36-2.43-9.48-5.11-21.25S270.1,192.21,270.24,192.18Z"/><path class="b" d="M326.23,164.69a7.94,7.94,0,0,1-1.81-2.32c-1-1.49-2-3.9-4.34-5.29a4.37,4.37,0,0,0-3.54-.46,7.34,7.34,0,0,0-2.64,1.54c-1.34,1.17-2.06,2-2.13,2a2.57,2.57,0,0,1,.44-.66,13.58,13.58,0,0,1,1.45-1.6,7.37,7.37,0,0,1,2.74-1.72,4.68,4.68,0,0,1,2-.21,5.24,5.24,0,0,1,2,.68,8.809,8.809,0,0,1,2.81,2.79c.66,1,1.15,2,1.59,2.77C325.58,163.77,326.28,164.64,326.23,164.69Z"/><path class="b" d="M341.14,215.47A8.269,8.269,0,0,1,341,214c-.08-.93-.18-2.29-.3-4-.22-3.35-.5-8-.6-13.09s0-9.76.06-13.11c.05-1.68.09-3,.14-4a7.18,7.18,0,0,1,.12-1.46,8.942,8.942,0,0,1,.08,1.46v4c0,3.35,0,8,.09,13.1s.32,9.73.45,13.08c.05,1.6.1,2.94.13,4A7.509,7.509,0,0,1,341.14,215.47Z"/><path class="b" d="M270.09,232.75c0,.08-.82-.42-2.18-.93a13.83,13.83,0,0,0-10.94.6c-1.29.66-2,1.23-2.06,1.16a6.36,6.36,0,0,1,1.89-1.48,12.54,12.54,0,0,1,5.55-1.63,12.69,12.69,0,0,1,5.7,1,6,6,0,0,1,2.04,1.28Z"/><path class="b" d="M267,228.86c0,.14-2.13-.53-4.76-1s-4.82-.63-4.82-.78a13.711,13.711,0,0,1,4.91.27,13.09,13.09,0,0,1,4.67,1.51Z"/><path class="b" d="M330.87,160c-.08,0-.37-.64-1.09-1.52a8.35,8.35,0,0,0-3.51-2.59,8.46,8.46,0,0,0-4.34-.38c-1.13.19-1.78.5-1.82.42a3.86,3.86,0,0,1,1.74-.78,7.69,7.69,0,0,1,8.23,3.11,3.83,3.83,0,0,1,.79,1.74Z"/><path class="b" d="M343.56,154.87a38.17,38.17,0,0,0-3.31,7.43,37.382,37.382,0,0,0-1.12,8,7.829,7.829,0,0,1-.22-2.41,21.75,21.75,0,0,1,.84-5.79,22.13,22.13,0,0,1,2.35-5.35A8.649,8.649,0,0,1,343.56,154.87Z"/><path class="g" d="M338.3,162.88l-.18.16-.56.43c-.48.39-1.24.89-2.11,1.69a54.132,54.132,0,0,0-6.81,7.19c-2.68,3.22-5.61,7.3-9.49,11.31a31.35,31.35,0,0,1-6.89,5.39,22.05,22.05,0,0,1-9,2.8,27.29,27.29,0,0,1-4.78,0,37.849,37.849,0,0,1-4.59-.64,57.737,57.737,0,0,1-8.4-2.43c-5.23-1.93-9.78-4-13.74-5.37a49.909,49.909,0,0,0-9.58-2.51c-1.16-.16-2.06-.25-2.68-.29l-.7-.06a.75.75,0,0,1-.24,0,.64.64,0,0,1,.24,0h.71a26.186,26.186,0,0,1,2.7.19,47.1,47.1,0,0,1,9.67,2.36c4,1.33,8.58,3.37,13.78,5.27a59.721,59.721,0,0,0,8.34,2.38,35,35,0,0,0,4.53.62,26.27,26.27,0,0,0,4.69,0A21.78,21.78,0,0,0,312,188.6a31,31,0,0,0,6.8-5.28c3.86-3.95,6.82-8,9.55-11.21a50.288,50.288,0,0,1,7-7.11,19.91,19.91,0,0,1,2.18-1.61l.59-.39Q338.29,162.87,338.3,162.88Z"/><path class="g" d="M338.82,207.84a3,3,0,0,1-.31.62,17.993,17.993,0,0,1-1,1.73,27.739,27.739,0,0,1-4.86,5.54,34.809,34.809,0,0,1-9.27,5.82,42.34,42.34,0,0,1-13,3.25,57.229,57.229,0,0,1-13.39-.57,81.31,81.31,0,0,1-10.66-2.43c-3-.89-5.37-1.71-7-2.32-.81-.29-1.44-.55-1.87-.71a3.481,3.481,0,0,1-.64-.29,4.441,4.441,0,0,1,.68.19l1.9.62c1.65.54,4,1.32,7,2.15a86.805,86.805,0,0,0,10.63,2.32,58.06,58.06,0,0,0,13.27.52,42.8,42.8,0,0,0,12.85-3.17,35.4,35.4,0,0,0,9.21-5.65,29.619,29.619,0,0,0,4.93-5.39C338.3,208.65,338.77,207.81,338.82,207.84Z"/><path class="g" d="M341.67,233.76a3,3,0,0,1-.47.51l-1.45,1.4c-1.27,1.2-3.11,2.94-5.51,5a55.479,55.479,0,0,1-9,6.31,32.52,32.52,0,0,1-12.79,4.13,33.34,33.34,0,0,1-13.31-2c-3.94-1.3-7.37-2.75-10.31-3.79a55,55,0,0,0-7.07-2.1c-1.7-.37-2.66-.49-2.65-.55a3.078,3.078,0,0,1,.7.06,18.559,18.559,0,0,1,2,.29,48.464,48.464,0,0,1,7.15,2c3,1,6.42,2.42,10.34,3.69a33.34,33.34,0,0,0,13.11,1.9,32.66,32.66,0,0,0,12.62-4,58.837,58.837,0,0,0,9-6.17c2.41-2,4.29-3.67,5.6-4.83l1.51-1.32a3.34,3.34,0,0,1,.53-.53Z"/><path class="g" d="M273.75,218.83c-.07,0-.82-1-2.26-2.5a27.43,27.43,0,0,0-13.91-7.79c-2-.44-3.32-.53-3.32-.62a2.68,2.68,0,0,1,.92,0,17.1,17.1,0,0,1,2.47.28,24.81,24.81,0,0,1,14.11,7.9,16.71,16.71,0,0,1,1.53,2,2.892,2.892,0,0,1,.46.73Z"/><path class="g" d="M271.32,240a33.174,33.174,0,0,0-3.5-1,16.15,16.15,0,0,0-15.72,5.35c-1.47,1.7-2.06,3-2.15,2.94a4.1,4.1,0,0,1,.38-.91,13.588,13.588,0,0,1,1.48-2.26,15.65,15.65,0,0,1,16.09-5.47,13.57,13.57,0,0,1,2.56.89,3.25,3.25,0,0,1,.86.46Z"/><path class="g" d="M352.69,147c-.07.05-.82-1-2.21-2.52a34.62,34.62,0,0,0-13.17-9.07c-1.93-.75-3.17-1.08-3.15-1.17a3,3,0,0,1,.9.14,23.158,23.158,0,0,1,2.38.68,30.641,30.641,0,0,1,7.28,3.68,31,31,0,0,1,6,5.49,22.5,22.5,0,0,1,1.48,2,3,3,0,0,1,.49.77Z"/><path class="g" d="M364.28,116.88c-.08.05-.67-.92-1.81-2.33a27.87,27.87,0,0,0-5.11-4.88,27.49,27.49,0,0,0-6.21-3.38c-1.7-.65-2.8-.92-2.78-1a2.52,2.52,0,0,1,.8.1,16.181,16.181,0,0,1,2.11.57,23.63,23.63,0,0,1,6.38,3.3,23.88,23.88,0,0,1,5.1,5.07,16.289,16.289,0,0,1,1.18,1.84,2.489,2.489,0,0,1,.34.71Z"/><path class="g" d="M376,90.32c-.08,0-.6-.94-1.6-2.4a25.3,25.3,0,0,0-10.46-8.76c-1.61-.73-2.67-1.07-2.64-1.15s.28,0,.77.14a16.62,16.62,0,0,1,2,.67,22.22,22.22,0,0,1,10.62,8.9,15.565,15.565,0,0,1,1,1.87,2.29,2.29,0,0,1,.31.73Z"/><g class="h"><path d="M251.81,235.69c1.9-3.17,6.07-4.26,9.75-3.93s7.19,1.75,10.83,2.41a11,11,0,0,0-20.95.67"/></g><path class="b" d="M285.51,151.63a12.51,12.51,0,0,1-16.67-11.18c-.18-3.62,1.2-7.42-.17-10.77-.94-2.31-3.05-4-3.89-6.35-1.24-3.5.66-7.26,2.5-10.49a23.89,23.89,0,0,1,4.13-5.8,8.16,8.16,0,0,1,6.47-2.43"/><path class="b" d="M315.47,102.24c0,2.75,2,5.05,3.93,7s4.13,3.91,4.72,6.58c1,4.75-3.34,9.54-2,14.22.7,2.51,2.93,4.41,3.49,7s-.63,5-2.14,7-3.42,3.73-4.74,5.88c0,0-2.68,5.21-12.28,2.68"/><path class="b" d="M273.84,109.41c-.25-2.47,1.9-4.54,4.14-5.61s4.78-1.6,6.73-3.13c1.73-1.35,2.82-3.35,4.24-5a15.28,15.28,0,0,1,26.13,5.16c1.13,3.46.83,7.67-1.78,10.21-3,3-7.86,2.69-12.05,2.14s-8.92-1-12.2,1.62c-2,1.61-3,4.08-4.11,6.37s-2.55,4.65-4.89,5.65-5.71-.19-6-2.73"/><path class="k" d="M318.45,116.13c-1-7-6.28-15.34-13.26-14.08l-21.56,7.17a4.15,4.15,0,0,0-3.39,4.47l5.29,49.54a12.64,12.64,0,0,0,13.67,11.25h0a12.63,12.63,0,0,0,11.5-13.57c-.32-4-.58-7.41-.58-7.4s8.91-2.17,9.91-14.07C320.53,133.52,319.52,123.94,318.45,116.13Z"/><path class="b" d="M316.92,123.84c-.17.21-1.38-.55-3-.42s-2.76,1-2.95.83.08-.45.57-.86a4.08,4.08,0,0,1,2.34-.92,3.91,3.91,0,0,1,2.4.59C316.81,123.4,317,123.75,316.92,123.84Z"/><path class="b" d="M301,125.43c-.17.21-1.38-.55-3-.43s-2.76,1-3,.84.07-.45.57-.87a4.14,4.14,0,0,1,2.34-.91,4,4,0,0,1,2.4.58C300.87,125,301.07,125.33,301,125.43Z"/><path class="b" d="M307.58,134.37a10.76,10.76,0,0,1,2.6-.67c.41-.07.8-.19.85-.47a2.12,2.12,0,0,0-.37-1.21c-.46-1-1-2-1.46-3.07-2-4.37-3.54-8-3.36-8.06s2,3.4,4,7.77l1.41,3.09a2.44,2.44,0,0,1,.34,1.61,1.05,1.05,0,0,1-.64.66,2.94,2.94,0,0,1-.7.15A10.649,10.649,0,0,1,307.58,134.37Z"/><path class="l" d="M310.12,153.51a30,30,0,0,1-16.07-3s4.57,7.8,16.27,5.83Z"/><path class="b" d="M301.24,118.77c-.13.45-1.77.37-3.65.74s-3.4,1-3.68.62c-.12-.18.11-.62.7-1.09a6.25,6.25,0,0,1,2.67-1.16,6.06,6.06,0,0,1,2.91.13C300.91,118.24,301.29,118.56,301.24,118.77Z"/><path class="b" d="M315.85,117.44c-.26.39-1.4.09-2.75.17s-2.47.44-2.76.07c-.13-.18,0-.56.5-1a4,4,0,0,1,4.44-.19C315.78,116.89,316,117.25,315.85,117.44Z"/><path class="b" d="M278.18,148.54a10.48,10.48,0,0,0,11.61-12.45c-.57-2.87-2.34-5.7-1.54-8.5,1.07-3.72,6.06-5.19,7.15-8.9.63-2.15-.25-4.56.49-6.68s2.65-3.25,4.58-4.11,4-1.5,5.59-2.91,2.43-3.92,1.23-5.66A111.488,111.488,0,0,0,282,107.42c-1.87.85-3.83,1.86-4.84,3.65s-.85,4.22-.6,6.38l3.75,31.6"/><path class="f" d="M269.23,110.74a.86.86,0,0,0-.16.49,1.78,1.78,0,0,0,.55,1.38,3,3,0,0,0,2.18.92,6.82,6.82,0,0,0,2.92-1.11,8.42,8.42,0,0,1,3.36-1.26,18.55,18.55,0,0,1,4.19.08,27.761,27.761,0,0,0,4.74.27,6.74,6.74,0,0,0,4.69-2.1,13.881,13.881,0,0,0,2.47-4.5,21.709,21.709,0,0,1,2-4.2,6.62,6.62,0,0,1,6.62-3,6.92,6.92,0,0,1,4.31,2.74,16.941,16.941,0,0,1,1,1.68,1.491,1.491,0,0,0-.13-.5,6.6,6.6,0,0,0-.66-1.32,7,7,0,0,0-4.44-3,6.81,6.81,0,0,0-3.77.34,7.07,7.07,0,0,0-3.39,2.73,22.129,22.129,0,0,0-2.05,4.3,13.66,13.66,0,0,1-2.35,4.3,6.2,6.2,0,0,1-4.29,1.92,28.47,28.47,0,0,1-4.65-.23,17.781,17.781,0,0,0-4.31,0,8.65,8.65,0,0,0-3.51,1.39,6.59,6.59,0,0,1-2.71,1.14,2.76,2.76,0,0,1-2-.75,1.7,1.7,0,0,1-.6-1.21A2.725,2.725,0,0,1,269.23,110.74Z"/><path class="b" d="M275.58,106.88A8.67,8.67,0,0,0,274,90a5.284,5.284,0,0,0-5.06,2c-1.06,1.63-.74,3.73-2,5s-3.68,1-5.55,1.54c-2.91.85-4.66,4.23-4.1,7.2a8.67,8.67,0,0,0,5.91,6.33,13.68,13.68,0,0,0,8.9-.46,33.6,33.6,0,0,0,7.85-4.53"/><path class="f" d="M260.82,99.38a5.24,5.24,0,0,0,1,2.1,12.09,12.09,0,0,0,9.69,5.12,5.29,5.29,0,0,0,2.31-.34,22,22,0,0,0-2.29-.09,13.39,13.39,0,0,1-9.36-5C261.31,100.13,260.92,99.34,260.82,99.38Z"/><path class="e" d="M268,112c.17.12,1.75-3,5.23-5.31s6.93-2.65,6.88-2.84a5.5,5.5,0,0,0-2.24.19,14.56,14.56,0,0,0-8.85,6A5.68,5.68,0,0,0,268,112Z"/><path class="f" d="M280.63,103.15a1.735,1.735,0,0,0,.19.33,3.45,3.45,0,0,0,.82.75,5.14,5.14,0,0,0,3.95.59,9.8,9.8,0,0,0,4.88-3.4c1.48-1.67,2.82-3.77,4.89-5.16a9.3,9.3,0,0,1,6.7-1.34A8.86,8.86,0,0,1,307,97.64a9.94,9.94,0,0,1,2.05,3.29c.31.88.4,1.39.45,1.38s0-.13,0-.38a5.942,5.942,0,0,0-.22-1.07,9.33,9.33,0,0,0-1.95-3.51,9.2,9.2,0,0,0-5.15-3A9.72,9.72,0,0,0,295,95.76c-2.22,1.49-3.55,3.65-5,5.29a9.53,9.53,0,0,1-4.56,3.35,5,5,0,0,1-3.73-.37,8,8,0,0,1-1.08-.88Z"/><path class="l" d="M307.79,138.51a6.331,6.331,0,0,1-.84,1.71,2.22,2.22,0,0,1-1.58,1,2.07,2.07,0,0,1-1.74-.9,3.25,3.25,0,0,1-.51-1.95c0-.61.28-1.35.89-1.44a1.54,1.54,0,0,1,.75.16L308,138.3"/><path class="b" d="M306.56,141.17a4.73,4.73,0,0,1-1.72-.17,2.48,2.48,0,0,1-1.32-1.16,2.59,2.59,0,0,1-.08-2.1,2.218,2.218,0,0,1,.27-.48c.12-.14.1-.13.24-.11a4.27,4.27,0,0,1,.52.19l.53.2c.69.27,1.32.5,1.85.68a5.88,5.88,0,0,0,1.76.5,6,6,0,0,0-1.61-.87c-.51-.24-1.12-.51-1.8-.8l-.53-.22a4.569,4.569,0,0,0-.59-.23.77.77,0,0,0-.47,0,.86.86,0,0,0-.35.29,2.84,2.84,0,0,0-.35.61,3,3,0,0,0,.15,2.57,2.73,2.73,0,0,0,1.65,1.29,2.53,2.53,0,0,0,1.39,0C306.42,141.32,306.57,141.21,306.56,141.17Z"/><path class="k" d="M277.27,256.17s2.68-3.67-2.33-3.67l-5.91.95s-4.88,1.76-5.76,2.22-4.86,7.15-4.86,7.15l-.84,7.35,6.24,7.13a3.34,3.34,0,0,0,3.16,1.08l7.95-1.6a27.251,27.251,0,0,0,4.48-1.7c1.75-.93,6.14-3.86,4.64-4.68a3.24,3.24,0,0,0-3.14.35,2.37,2.37,0,0,0-3.39-.82l-2.38,1.17s-.63-2.57-2.38-1.29-5.9,4.57-5.9,4.57l-4.62-5.59,1.81-7,13.39-6"/><path class="f" d="M275.75,256s-11,3.74-12,4.58-2.87,5.26-2.63,6.81,1.87,7.66,6.23,7.06c4.62-.63,5.15-4.14,5.15-4.14l15.05-2.61s1.2,3.88,4.43,3.16,6.94-6.52,6.94-6.52,15.9-.18,16.62-2.69,1.08-4.3-2.15-6.82-18.52-1.69-18.52-1.69Z"/><path class="n" d="M272.53,270.33s-1.22-4.47,2.76-5.55,10.78-2.55,12.29,2.94"/><path class="b" d="M294.14,266.59a11.171,11.171,0,0,0-1-2.48l-.94-1.94a2.43,2.43,0,0,0-.53-.8,2.14,2.14,0,0,0-1.83-.45h.11a2.19,2.19,0,0,0-1.61,1.17,4.06,4.06,0,0,0-.06,2.51,21,21,0,0,0,1,3.19,5.889,5.889,0,0,0,.85,1.63,2.43,2.43,0,0,0,1.53.95,2.29,2.29,0,0,0,2.19-1.22A3.76,3.76,0,0,0,294.14,266.59Z"/><path class="b" d="M294.14,266.59a1.94,1.94,0,0,1,.21,1,3,3,0,0,1-1,2.51,2.26,2.26,0,0,1-1.88.51,2.93,2.93,0,0,1-1.77-1.35,11.531,11.531,0,0,1-1-2.18,21.725,21.725,0,0,1-.68-2.44,4.51,4.51,0,0,1,0-2.47,2.41,2.41,0,0,1,1.87-1.44v.49h-.11l-1-.14.92-.32a2.09,2.09,0,0,1,1.77.29,2.46,2.46,0,0,1,.95,1.27l1,2.23a5,5,0,0,1,.62,2.1c-.06,0-.25-.77-.88-2l-1.12-2.18a2,2,0,0,0-.81-1.06,1.71,1.71,0,0,0-1.35-.24l-.07-.46H290l1.73.22-1.73.27a1.94,1.94,0,0,0-1.45,1.14,4,4,0,0,0,0,2.17,18.815,18.815,0,0,0,.66,2.38,10.5,10.5,0,0,0,.88,2.09,2.45,2.45,0,0,0,1.46,1.19,1.87,1.87,0,0,0,1.55-.38,2.88,2.88,0,0,0,1-2.22C294.17,266.94,294.1,266.59,294.14,266.59Z"/><path class="b" d="M292.28,265.06c0,.14-.57.4-1.34.57s-1.43.21-1.47.07.57-.4,1.35-.57S292.25,264.92,292.28,265.06Z"/><path class="b" d="M316.26,259.08s0,.09-.15.22a2.311,2.311,0,0,1-.59.46,5.26,5.26,0,0,1-2.69.47c-2.29-.17-5.42-.54-8.85-1a7.22,7.22,0,0,0-4.6.68,19.879,19.879,0,0,0-3.06,2.47,16.863,16.863,0,0,1-2.1,1.71,2.62,2.62,0,0,1-.9.44,8.313,8.313,0,0,1,.78-.61,24.869,24.869,0,0,0,2-1.8,18.421,18.421,0,0,1,3.07-2.63,7.62,7.62,0,0,1,4.9-.78l8.81,1.11a5.47,5.47,0,0,0,2.58-.28A8.005,8.005,0,0,0,316.26,259.08Z"/><path class="b" d="M265.93,265.47c-.34-.46-1.49-.41-2-.16a2,2,0,0,0-1,1.33,4.109,4.109,0,0,0,0,1.71,9,9,0,0,0,1.36,3.26A4.38,4.38,0,0,0,266,273.2a2.23,2.23,0,0,0,2.25-.15,2.37,2.37,0,0,0,.7-2.41,6.94,6.94,0,0,0-1.2-2.34,19.868,19.868,0,0,0-1.83-2.83"/><path class="b" d="M265.93,265.47a2.586,2.586,0,0,1,.63.64c.35.47.76,1.2,1.31,2a12.514,12.514,0,0,1,.92,1.42,3.64,3.64,0,0,1,.47,1.95,2.28,2.28,0,0,1-1.16,1.95,2.65,2.65,0,0,1-2.43-.14,5.05,5.05,0,0,1-1.67-1.68,9.459,9.459,0,0,1-.95-1.95,8.2,8.2,0,0,1-.42-1.92,3.08,3.08,0,0,1,.31-1.73,1.81,1.81,0,0,1,1.13-.94,3,3,0,0,1,1.08-.07c.61.08.83.43.78.44a1.46,1.46,0,0,0-.8-.23,1.81,1.81,0,0,0-1.86,1,4.51,4.51,0,0,0,.23,3.32,9,9,0,0,0,.93,1.83,4.51,4.51,0,0,0,1.5,1.51,2.13,2.13,0,0,0,1.94.13,1.79,1.79,0,0,0,.91-1.52,5.34,5.34,0,0,0-1.22-3.14c-.53-.9-.86-1.64-1.16-2.12A6.352,6.352,0,0,1,265.93,265.47Z"/><path class="b" d="M272.12,268.4c.08.11-.66.7-1.77.92a2.632,2.632,0,0,1-2-.18,9.923,9.923,0,0,1,1.89-.33C271.25,268.61,272,268.27,272.12,268.4Z"/><path class="b" d="M289.68,265.7c.06.14-.51.47-1.25.65s-1.43.16-1.42,0,.56-.29,1.29-.49S289.62,265.58,289.68,265.7Z"/><path class="b" d="M301.06,253a3.64,3.64,0,0,1,1.67.94,7.32,7.32,0,0,1,2,8.55,3.67,3.67,0,0,1-1.08,1.58c-.07,0,.36-.64.74-1.72a7.6,7.6,0,0,0-1.92-8.14A13.931,13.931,0,0,0,301.06,253Z"/><path class="b" d="M287.57,267.88c-.05,0-.05-.3-.21-.8a4.12,4.12,0,0,0-1.25-1.76,5.4,5.4,0,0,0-3-1.19,17,17,0,0,0-4.05.14,24.187,24.187,0,0,0-4,.82,3.87,3.87,0,0,0-2.41,2,4.81,4.81,0,0,0-.27,2.16,3.888,3.888,0,0,1,0,.84,2.3,2.3,0,0,1-.22-.82,4.43,4.43,0,0,1,.13-2.32,4.14,4.14,0,0,1,2.59-2.26,20.552,20.552,0,0,1,4.08-.88,16,16,0,0,1,4.18-.11,5.67,5.67,0,0,1,3.15,1.39,3.86,3.86,0,0,1,1.2,2,1.6,1.6,0,0,1,.08.79Z"/><path class="b" d="M288.29,254.88l-.23-1.77s-2.36.51-2.56-.35,1.17-2.21,4.18-2.77,5.57,1,5.24,1.52a3,3,0,0,1-1.84,1l.33,1.87a6.42,6.42,0,0,1-5.12.5Z"/><path class="b" d="M290.28,255.16a8,8,0,0,1-2-.26h0l-.22-1.74c-.28.06-2.37.45-2.56-.37a1.05,1.05,0,0,1,.2-.82c.58-.89,2.08-1.63,4-2,2.52-.47,4.76.56,5.21,1.22a.3.3,0,0,1,.05.35,2.94,2.94,0,0,1-1.83.95l.33,1.86h0a5.179,5.179,0,0,1-1.38.58A6.34,6.34,0,0,1,290.28,255.16Zm-2-.3a7.35,7.35,0,0,0,3.73,0,4.58,4.58,0,0,0,1.34-.58l-.33-1.87h0a3,3,0,0,0,1.82-.93c.06-.09,0-.21,0-.29-.44-.65-2.66-1.66-5.16-1.2a6.275,6.275,0,0,0-4,2,1,1,0,0,0-.2.78c.18.82,2.5.34,2.52.33h0Z"/><path class="f" d="M294.75,251.72a8,8,0,0,1-4.4,1.69,9.78,9.78,0,0,1-4.7-.35c0-.17,2.11.15,4.64-.17a28.5,28.5,0,0,0,4.46-1.17Z"/><path class="b" d="M278.79,256c-.07-.26-.39-.32-.66-.33-2.08,0-5.51.65-6.64,1.83a.5.5,0,0,0,.34.83,10,10,0,0,0,6.6-1.76C278.63,256.39,278.84,256.18,278.79,256Z"/><path class="b" d="M278.79,256s.06.05,0,.18a.79.79,0,0,1-.28.44,9.172,9.172,0,0,1-1.52,1,10,10,0,0,1-2.55.85,11.226,11.226,0,0,1-1.59.17h-1.06a.84.84,0,0,1-.29-.08.83.83,0,0,1-.41-.47.76.76,0,0,1,.1-.64,2.717,2.717,0,0,1,.36-.34,4.141,4.141,0,0,1,.75-.45,7.807,7.807,0,0,1,1.5-.55,14.12,14.12,0,0,1,2.63-.47,9.933,9.933,0,0,1,1.81,0,.69.69,0,0,1,.46.24c.08.11.06.18.05.18a.64.64,0,0,0-.53-.22,13.709,13.709,0,0,0-1.75.18,16,16,0,0,0-2.54.56,8.122,8.122,0,0,0-1.4.55,3.618,3.618,0,0,0-.66.4,2.19,2.19,0,0,0-.26.23.22.22,0,0,0,0,.18.25.25,0,0,0,.14.16.24.24,0,0,0,.11,0h1.01a12.117,12.117,0,0,0,1.51-.13,10.852,10.852,0,0,0,2.47-.72,12.393,12.393,0,0,0,1.55-.8.73.73,0,0,0,.39-.45Z"/><rect class="b" width="128.45" height="2.49" transform="translate(58.578 147.258) rotate(-24.62)"/><rect class="b" width="2.49" height="321.06" transform="translate(85.91 135.53)"/><rect class="f" width="6.32" height="43.09" rx="2.32" transform="translate(83.76 220.44)"/><path class="c" d="M173.07,94.74l3.26,5.61,14.52-8.44-3.7-5.77a8.26,8.26,0,0,0-10.84-2.82h0a8.26,8.26,0,0,0-3.24,11.42Z"/><path class="c" d="M175.87,98.14l-8.28,39.15,60.03-33.99L190.85,91.91Z"/><path class="b" d="M230.42,104.92c-3-5.55-19.57-2.41-37,7s-29.11,21.58-26.11,27.13,19.57,2.42,37-7S233.43,110.48,230.42,104.92Z"/><path class="b" d="M53,456.59h69.35s-10.31-10.51-35.15-9.5S53,456.59,53,456.59Z"/><path class="f" d="M91.86,135.57a4.7,4.7,0,1,1-4.7-4.7,4.7,4.7,0,0,1,4.7,4.7Z"/><path class="f" d="M175.79,84.64l-3.29-5.58L175.35,78l2.6,5.85Z"/><path class="b" d="M190.85,91.58c0,.21-4.12,0-8.6,2.06s-7,5.36-7.16,5.2a7.2,7.2,0,0,1,1.62-2.11,18.27,18.27,0,0,1,11.49-5.29A7.25,7.25,0,0,1,190.85,91.58Z"/><path class="g" d="M189.07,114.44v11.67a5.67,5.67,0,0,0,1.31,3.73c1.49,1.69,4.59,3,10.87-.28,7.37-3.89,6.64-8.27,5.45-10.63a5.75,5.75,0,0,0-2.28-2.38l-9.36-5.46Z"/><path class="b" d="M193,112.29a10.709,10.709,0,0,1,.69,1.37,39,39,0,0,0,2,3.61c.47.74,1,1.53,1.61,2.37a5.429,5.429,0,0,0,1,1.11,1.36,1.36,0,0,0,1.31.28,1.09,1.09,0,0,0-.22-2.09,2.91,2.91,0,0,0-1.66.39,18,18,0,0,0-1.73.92,18.477,18.477,0,0,0-1.64,1.07c-.53.36-.94.76-.89,1.25a3.19,3.19,0,0,0,.65,1.49.67.67,0,0,0,1.08-.13,1.4,1.4,0,0,0,.13-1.35,8.11,8.11,0,0,0-.68-1.39c-.5-.89-1-1.73-1.39-2.52l-2-3.67a7.751,7.751,0,0,1-.65-1.39,6.8,6.8,0,0,1,.87,1.27c.58,1,1.3,2.15,2.15,3.57.46.77.94,1.6,1.46,2.48a8.089,8.089,0,0,1,.76,1.47,2.36,2.36,0,0,1,.15.93,1.71,1.71,0,0,1-.35,1,1.44,1.44,0,0,1-.91.58,1.21,1.21,0,0,1-1.08-.38,2.91,2.91,0,0,1-.54-.87,2.84,2.84,0,0,1-.3-1,1.61,1.61,0,0,1,.35-1.1,3.71,3.71,0,0,1,.79-.71c.54-.39,1.1-.76,1.69-1.11s1.18-.66,1.78-.94a3.54,3.54,0,0,1,2.05-.43,1.72,1.72,0,0,1,1.42,1.55,1.7,1.7,0,0,1-1.09,1.71,2,2,0,0,1-1.87-.38,5.261,5.261,0,0,1-1.12-1.26c-.59-.85-1.12-1.67-1.56-2.43a28.439,28.439,0,0,1-1.87-3.75,5.45,5.45,0,0,1-.39-1.52Z"/><path class="e" d="M224.33,366.62c0,.51,10.65,78.62,10.65,78.62s14.16,1.18,16.1,11.26H225.64S210,410.62,205.19,406.75s-12.61-7.35-12.61-7.35l7.11-3-4.85-6.14s2.27,2.59,5.18-1.61"/><path class="b" d="M247.54,456.5c-.1,0-.18-.77-.58-1.92a9.75,9.75,0,0,0-6.61-6.3c-1.17-.35-1.95-.39-1.95-.48a4,4,0,0,1,2,.08,9,9,0,0,1,6.91,6.58,4.3,4.3,0,0,1,.23,2.04Z"/><path class="b" d="M223.7,375a6,6,0,0,1,.31,1.27,29.931,29.931,0,0,1,.52,3.54,45.136,45.136,0,0,1,.18,5.3,48.182,48.182,0,0,1-.63,6.47,49.891,49.891,0,0,1-1.57,6.32,43,43,0,0,1-1.95,4.93,33.309,33.309,0,0,1-1.67,3.17,6.638,6.638,0,0,1-.72,1.09,5.44,5.44,0,0,1,.54-1.19c.39-.74.91-1.84,1.51-3.22a48.252,48.252,0,0,0,1.83-4.93,51.174,51.174,0,0,0,1.51-6.25,53.43,53.43,0,0,0,.67-6.4,49.239,49.239,0,0,0-.07-5.26c-.1-1.5-.23-2.71-.35-3.54A6.279,6.279,0,0,1,223.7,375Z"/><path class="e" d="M119.73,409.57c-8.45,2.67-17.56-4.44-20-13s0-17.65,3.1-25.94,7-16.56,7.45-25.41c.52-10.17-4.15-20.83-12.88-26.07s-21.4-3.78-27.69,4.21S65.8,345.1,75,349.4c-2.47-1.37-5.06-2.78-7.89-2.87s-5.92,1.6-6.42,4.38,1.61,5.26,3.85,6.92,4.87,3,6.26,5.43c2.18,3.8.5,8.53-.53,12.79a40.07,40.07,0,0,0,59.18,44.05"/><g class="h"><path d="M117.53,410.21c-1,.77-2.52-.34-3.76,0-.92.28-1.39,1.28-1.71,2.19a13.51,13.51,0,0,0-.81,7.23,6.46,6.46,0,0,0,4.73,5.09,1.63,1.63,0,0,0,1.74-.52,2,2,0,0,0,.16-1q-.18-6.21-.34-12.42"/></g><path class="e" d="M154.06,456.5l-6.51-38.71,26-6.87c5.22,1.43,9.85,5.68,12.34,11.33s1.43,15.26-.52,21.21a52.3,52.3,0,0,1,15.37,1.79c4.83,1.65,9.51,5.13,8.8,11.07Z"/><path class="e" d="M154.06,456.5l-6.51-38.71,26-6.87c5.22,1.43,9.85,5.68,12.34,11.33s1.43,15.26-.52,21.21a52.3,52.3,0,0,1,15.37,1.79c4.83,1.65,9.57,5.32,8.87,11.25Z"/><g class="h"><path d="M154.06,456.5l-6.51-38.71,26-6.87c5.22,1.43,9.85,5.68,12.34,11.33s1.43,15.26-.52,21.21a52.3,52.3,0,0,1,15.37,1.79c4.83,1.65,9.57,5.32,8.87,11.25Z"/></g><path class="e" d="M129.91,456.5h63.23c-.31-14.67-11-13.05-11-13.05H167.56c8-4.52,10.32-16,10.32-16,15.26-4.09,27.46-22.18,27.46-22.18l11.91-24.57.61,8.88,5.49-11.27c5.19-19.79-10.38-48.79-10.38-48.79l12.21.34c0-6.49-7.93-6.49-13.73-7.85s-3.66-8.87-3.66-8.87,13.73,1.7,19.22-4.78,2.75-15.7,2.75-15.7l-19.84,2.39c-2.74-3.07-12.51-7.51-18.92-5.8s-18.31,10.92-20.45,16-3.05,21.5-4.14,35.49-9.9,23.2-17.83,32.08-19.53,15-27.47,24.56c-2.48,3-3.7,8.14-4.22,13.82a64.71,64.71,0,0,0,10.57,41.55Z"/><path class="e" d="M218.56,370.05c0,.5.38,75.19.38,75.19s14.16,1.18,16.1,11.26H209.6s-15.6-45.88-20.45-49.75-12.61-7.35-12.61-7.35l7.11-3-4.85-6.14s2.27,2.59,5.17-1.61"/><path class="b" d="M188.27,297.53a2.41,2.41,0,0,1,.06.6v17.29a50.005,50.005,0,0,1-.21,5.52,15.43,15.43,0,0,1-1.66,5.74,8,8,0,0,1-4.62,3.78,9.36,9.36,0,0,1-5.58-.16,9.94,9.94,0,0,1-4.23-2.76,11.26,11.26,0,0,1-2.22-3.79,14.46,14.46,0,0,1-.74-6.25,12.47,12.47,0,0,1,.27-1.69,2.541,2.541,0,0,1,.16-.58c.06,0-.12.82-.2,2.29a15,15,0,0,0,.9,6.09,11,11,0,0,0,2.19,3.61,9.56,9.56,0,0,0,4,2.57,8.81,8.81,0,0,0,5.24.12,7.47,7.47,0,0,0,4.28-3.52,15,15,0,0,0,1.6-5.52,51.092,51.092,0,0,0,.24-5.46c0-3.48.1-6.63.13-9.3s.11-4.71.14-6.28c0-.68.05-1.25.07-1.7a2.41,2.41,0,0,1,.18-.6Z"/><path class="b" d="M223.84,293.5a4,4,0,0,0,.72,2.93,5.61,5.61,0,0,0,2.32,1.72,5.31,5.31,0,0,0,3.68.55,15.18,15.18,0,0,0-.18-4.66,1.32,1.32,0,0,0-1.44-1.4,12.321,12.321,0,0,0-5.1.86"/><path class="b" d="M218.56,440.68c-.17,0-.21-16-.1-35.66s.32-35.66.48-35.66.21,16,.1,35.66S218.72,440.68,218.56,440.68Z"/><path class="b" d="M189.62,456.5c-.09,0,.07-.78,0-2a8.68,8.68,0,0,0-1.51-4.37,8.85,8.85,0,0,0-3.61-2.92c-1.11-.49-1.88-.59-1.86-.69a3.929,3.929,0,0,1,2,.31A8,8,0,0,1,190,454.5a3.9,3.9,0,0,1-.38,2Z"/><path class="b" d="M149.3,410.72a2.38,2.38,0,0,1,.54-.26c.36-.16.9-.35,1.6-.58a24,24,0,0,1,6.17-1.06,21.68,21.68,0,0,1,9.15,1.57,19.55,19.55,0,0,1,8.89,7,15.3,15.3,0,0,1,2.3,5.47,17,17,0,0,1,.17,5.53,19.19,19.19,0,0,1-3.35,8.66,29.312,29.312,0,0,1-4.29,4.56c-.56.48-1,.85-1.3,1.09a2.3,2.3,0,0,1-.48.35,3.151,3.151,0,0,1,.4-.43l1.22-1.18a32.492,32.492,0,0,0,4.12-4.63,19.38,19.38,0,0,0,3.15-8.48,16.7,16.7,0,0,0-.2-5.35,15,15,0,0,0-2.23-5.27,19.37,19.37,0,0,0-8.6-6.86,21.74,21.74,0,0,0-8.93-1.64,26,26,0,0,0-6.13.86C150.09,410.48,149.32,410.77,149.3,410.72Z"/><path class="b" d="M197.27,420.22a1.25,1.25,0,0,1-.22-.31c-.17-.26-.36-.58-.59-1-.5-.84-1.2-2.07-2.06-3.65s-1.86-3.49-2.92-5.71a58.9,58.9,0,0,1-3.13-7.57l.5.05c-.69,1.29-1.4,2.65-2.14,4.05l-.26.5-.25-.51a12.33,12.33,0,0,1-.74-8.66l.52.26-3.69,4.8-.4.52-.1-.64a44.93,44.93,0,0,1,.4-16.67,39.281,39.281,0,0,1,1.29-4.69c.18-.54.35-.94.46-1.22a1.671,1.671,0,0,1,.19-.41,16.412,16.412,0,0,1-.47,1.69c-.31,1.08-.74,2.68-1.12,4.7a46.81,46.81,0,0,0-.2,16.51l-.5-.13,3.67-4.82,1-1.24-.44,1.5a12.168,12.168,0,0,0-.38,2,11.68,11.68,0,0,0,1.07,6.25h-.51l2.17-4,.31-.58.19.63a62.57,62.57,0,0,0,3,7.54c1,2.22,2,4.15,2.81,5.75l1.92,3.71A8.45,8.45,0,0,1,197.27,420.22Z"/><path class="b" d="M231.5,456.5c-.1,0-.18-.77-.58-1.92a9.75,9.75,0,0,0-6.61-6.3c-1.18-.35-1.95-.39-1.95-.48a4,4,0,0,1,2,.08,9.089,9.089,0,0,1,4.39,2.3,9.22,9.22,0,0,1,2.52,4.28A4.3,4.3,0,0,1,231.5,456.5Z"/><g class="h"><path d="M182.82,380.51a35,35,0,0,0-4.68,12.73c-.54,4.52.42,9.37,3.37,12.83a26.342,26.342,0,0,0,5.21,4.3l5.36,3.7a15.53,15.53,0,0,0-3.8-11.13l-1.23,3.45a9.5,9.5,0,0,1-1.83-8l-3.71,4a111.1,111.1,0,0,1,2.06-21.76"/></g><g class="h"><path d="M169.22,318.74c.11,3.51.62,7.39,2.67,10.24s5.57,4.79,9,4.29c4.26-.62,7.33-4.72,8.16-8.94s-.09-8.58-1-12.78c.22,3.92.42,8-.93,11.66s-4.67,7-8.59,7a8.61,8.61,0,0,1-6.88-3.83,12.56,12.56,0,0,1-2.45-7.6"/></g><path class="b" d="M134.55,387.91a10,10,0,0,1,1.84-2.79,9.67,9.67,0,0,1,2.3-2.43,10,10,0,0,1-1.84,2.79,9.67,9.67,0,0,1-2.3,2.43Z"/><path class="b" d="M136,388.4c-.14-.1.33-1,1-2s1.38-1.73,1.51-1.64-.33,1-1,2S136.14,388.49,136,388.4Z"/><path class="b" d="M139.76,389c-.16,0-.2-.84-.08-1.83s.34-1.77.5-1.75.2.83.08,1.82S139.92,389,139.76,389Z"/><path class="b" d="M169.44,368.11a11.87,11.87,0,0,1-.19-5.17,5.94,5.94,0,0,1,.39,2.58A5.81,5.81,0,0,1,169.44,368.11Z"/><path class="b" d="M171.48,368.71a4.15,4.15,0,0,1-1-2.61,4.09,4.09,0,0,1,.36-2.77,21.48,21.48,0,0,1,.22,2.7A18.612,18.612,0,0,1,171.48,368.71Z"/><path class="b" d="M174.68,369.29a4.91,4.91,0,0,1-1.71-2.43,5,5,0,0,1-.57-2.92,17,17,0,0,1,1.1,2.69A17.741,17.741,0,0,1,174.68,369.29Z"/><path class="b" d="M198.36,337.64c-.06.14-1.15-.3-1.94-1.44s-.85-2.31-.69-2.32.45,1,1.17,2S198.45,337.49,198.36,337.64Z"/><path class="b" d="M199.94,337.26c-.06.14-.9-.14-1.61-.91s-.92-1.63-.78-1.68.57.6,1.21,1.28S200,337.11,199.94,337.26Z"/><path class="b" d="M203.13,337.65a5.77,5.77,0,0,1-3.79-4c.15-.07.78,1,1.81,2.07S203.21,337.5,203.13,337.65Z"/><path class="b" d="M174.56,314c-.16,0-.38-.77-.48-1.76s-.05-1.81.11-1.82.37.77.47,1.76S174.72,314,174.56,314Z"/><path class="b" d="M176.25,313.17c-.14.05-.58-.75-.69-1.84s.14-2,.29-1.95.18.87.29,1.89S176.41,313.11,176.25,313.17Z"/><path class="b" d="M178.05,314c-.13.08-.75-.8-1-2.06a3.35,3.35,0,0,1,0-2.32c.17,0,.26,1,.54,2.18S178.2,313.88,178.05,314Z"/><path class="b" d="M139.38,429.42a8.12,8.12,0,0,1,.31-3,8.21,8.21,0,0,1,.88-2.93,8.12,8.12,0,0,1-.31,3,8.45,8.45,0,0,1-.88,2.93Z"/><path class="b" d="M141.21,427.64c-.16,0-.15-.77,0-1.65s.42-1.57.58-1.54.15.77,0,1.65S141.37,427.67,141.21,427.64Z"/><path class="b" d="M73.74,368.2c-.18,0,0-2-.43-4.42s-1.31-4.2-1.16-4.28a10.76,10.76,0,0,1,1.59,8.7Z"/><path class="b" d="M230.45,300.24a3.151,3.151,0,0,1-.12,1,17,17,0,0,1-.75,2.66,18.4,18.4,0,0,1-1.85,3.69,11.839,11.839,0,0,1-3.57,3.59,16.38,16.38,0,0,1-4.7,1.85,24.781,24.781,0,0,1-4.06.6,23.628,23.628,0,0,1-2.77,0,2.94,2.94,0,0,1-1-.14c0-.09,1.44,0,3.73-.29a30.318,30.318,0,0,0,4-.71,16.65,16.65,0,0,0,4.52-1.83,11.62,11.62,0,0,0,3.44-3.4,20,20,0,0,0,1.9-3.53C230.08,301.63,230.35,300.21,230.45,300.24Z"/><path class="b" d="M202,299.83a1.79,1.79,0,1,0,.13,0"/><path class="b" d="M195.13,301.12c-.23.05-.55-.26-.75-.91a4.37,4.37,0,0,1,.11-2.58,4.3,4.3,0,0,1,1.49-2.1c.55-.39,1-.45,1.15-.27.29.41-.51,1.48-1,2.94S195.6,301,195.13,301.12Z"/><path class="e" d="M157.7,362.3a29.34,29.34,0,0,1-12.7,8.14,5.86,5.86,0,0,0,3,1,19.34,19.34,0,0,1-6.16,2.45,9.58,9.58,0,0,0,13.75-8.27"/><path class="b" d="M51.69,347.13a7,7,0,0,1-.62-1.36,14.15,14.15,0,0,1-.59-1.64c-.2-.66-.47-1.39-.65-2.23a35.6,35.6,0,0,1-.95-6,37.17,37.17,0,0,1,1.84-14.6,36,36,0,0,1,2.41-5.54,22.606,22.606,0,0,1,1.18-2,14.288,14.288,0,0,1,1-1.45,6.71,6.71,0,0,1,.93-1.15c.1.07-1.19,1.75-2.73,4.79a39.209,39.209,0,0,0-2.27,5.51,42.941,42.941,0,0,0-1.58,7.12,43.389,43.389,0,0,0-.24,7.29,38.049,38.049,0,0,0,.83,5.9C51,345.12,51.8,347.08,51.69,347.13Z"/><path class="b" d="M43.33,342.4a6.468,6.468,0,0,1-.41-.89,18.521,18.521,0,0,1-.77-2.57A26.64,26.64,0,0,1,44,321.62a17.718,17.718,0,0,1,1.3-2.35,3.45,3.45,0,0,1,.59-.79c.09.06-.64,1.25-1.51,3.3a30.18,30.18,0,0,0-2.18,8.4,30.61,30.61,0,0,0,.35,8.68C43,341.05,43.43,342.37,43.33,342.4Z"/><path class="b" d="M121.19,344.64c-.13,0,.12-2-.19-5.29a26.231,26.231,0,0,0-.39-2.63,29.789,29.789,0,0,0-.69-3,35.34,35.34,0,0,0-2.64-6.46,34.859,34.859,0,0,0-4-5.74,28.192,28.192,0,0,0-2.1-2.21,23.523,23.523,0,0,0-2-1.77c-2.54-2-4.38-2.94-4.32-3.05a6.183,6.183,0,0,1,1.3.61,11.53,11.53,0,0,1,1.44.85,17.549,17.549,0,0,1,1.83,1.27,23.129,23.129,0,0,1,2.07,1.73,30.514,30.514,0,0,1,2.18,2.21,31.5,31.5,0,0,1,6.71,12.42c.25,1.06.52,2.06.65,3a23.391,23.391,0,0,1,.32,2.68,21.749,21.749,0,0,1,.06,2.22,13.491,13.491,0,0,1-.08,1.68,6.72,6.72,0,0,1-.15,1.48Z"/><path class="b" d="M218.67,341a2.52,2.52,0,0,1-.45.37c-.31.22-.74.56-1.35.95a44.176,44.176,0,0,1-5.27,3,47.35,47.35,0,0,1-38.92,1.09,44.264,44.264,0,0,1-5.44-2.69c-.62-.36-1.08-.68-1.39-.88a2.171,2.171,0,0,1-.47-.34,2.621,2.621,0,0,1,.52.25c.33.17.81.47,1.44.79a52.65,52.65,0,0,0,5.47,2.53A48.6,48.6,0,0,0,211.44,345a52.722,52.722,0,0,0,5.32-2.83c.62-.36,1.08-.68,1.4-.87a2.5,2.5,0,0,1,.51-.3Z"/><path class="d" d="M200.18,351.48a2.07,2.07,0,0,0-2.48-1.33,8.841,8.841,0,0,0-1.92,1.21c-1.51.92-3.41.64-5.16.27a.71.71,0,0,1-.38-.23,4.34,4.34,0,0,0-2.84-1.31c-1.06-.07-2.19.94-1.9,2,.2.65.89,1.17.79,1.84a3.831,3.831,0,0,1-.29.73,1.68,1.68,0,0,0,.56,1.82,2.11,2.11,0,0,0,1.93.29,7.462,7.462,0,0,0,1.5-.86,6.41,6.41,0,0,1,6.75.14,3.71,3.71,0,0,0,1.45.77,1.5,1.5,0,0,0,1.63-1.09,1.47,1.47,0,0,0-.3-1.26.72.72,0,0,1,.12-.94,2.08,2.08,0,0,0,.54-2.05Z"/><path class="b" d="M197.52,353.56a22.881,22.881,0,0,1-8.25-.23,21,21,0,0,1,4.13,0,21.35,21.35,0,0,1,4.12.23Z"/><path class="b" d="M192.86,352.72c0,.07-.31.14-.78,0a1.83,1.83,0,0,1-1.16-1.49,1.77,1.77,0,0,1,.91-1.66c.44-.25.75-.21.76-.15s-.24.18-.55.45a1.64,1.64,0,0,0-.6,1.31,1.75,1.75,0,0,0,.81,1.22C192.59,352.58,192.86,352.64,192.86,352.72Z"/><path class="b" d="M193.85,349.38c.08-.09.66.22.92,1a1.24,1.24,0,0,1-.11,1c-.15.23-.32.29-.37.24a2.7,2.7,0,0,0,0-1.13C194.1,349.91,193.73,349.49,193.85,349.38Z"/></g></svg>