<?xml version="1.0" encoding="UTF-8"?>
<svg width="172px" height="173px" viewBox="0 0 172 173" version="1.1" xmlns="http://www.w3.org/2000/svg" xmlns:xlink="http://www.w3.org/1999/xlink">
    <!-- Generator: Sketch 60.1 (88133) - https://sketch.com -->
    <title>icono</title>
    <desc>Created with Sketch.</desc>
    <g id="icono" stroke="none" stroke-width="1" fill="none" fill-rule="evenodd">
        <g id="gamepad" transform="translate(3.664234, 6.500000)">
            <g>
                <ellipse id="Oval" fill="#39EA91" cx="107.984621" cy="83.9350098" rx="4.38141474" ry="4.67153285"></ellipse>
                <ellipse id="Oval" fill="#39EA91" cx="129.670011" cy="83.9350098" rx="4.38141474" ry="4.67153285"></ellipse>
                <ellipse id="Oval" fill="#39EA91" cx="118.780128" cy="94.951205" rx="4.38141474" ry="4.67153285"></ellipse>
                <ellipse id="Oval" fill="#39EA91" cx="118.780128" cy="73.2410088" rx="4.38141474" ry="4.67153285"></ellipse>
                <rect id="Rectangle" fill="#39EA91" x="61.3826318" y="112.952783" width="15.3946168" height="5.83941606" rx="2.91970803"></rect>
                <rect id="Rectangle" fill="#39EA91" x="87.4624106" y="112.952783" width="15.3946168" height="5.83941606" rx="2.91970803"></rect>
                <path d="M104.343398,128.363652 C113.647687,153.966222 127.278788,163.559155 145.236703,157.14245 C163.194619,150.725745 168.359803,135.438717 160.732255,111.281364 L148.999819,70.5845119 C144.155309,58.0362302 136.666904,50.4050715 126.534605,47.6910356 C116.402306,44.9769997 105.930704,47.6661344 95.1198011,55.7584398 L69.1646232,55.7584398 C57.9735496,46.8238671 46.8849319,44.3391689 35.8987701,48.3043453 C24.9126083,52.2695217 18.112787,59.3864051 15.4993061,69.6549954 L3.68757285,111.281364 C-4.30016459,134.193279 0.688916059,149.295069 18.6548148,156.586736 C36.6207135,163.878403 50.4830538,154.470708 60.2418358,128.363652 L104.343398,128.363652 Z" id="Path" stroke="#39EA91" stroke-width="4"></path>
                <ellipse id="Oval" stroke="#39EA91" stroke-width="4" cx="45.6524197" cy="83.9350098" rx="23.0029653" ry="23.0106256"></ellipse>
                <ellipse id="Oval" stroke="#39EA91" stroke-width="4" cx="118.162684" cy="83.9350098" rx="23.0029653" ry="23.0106256"></ellipse>
                <path d="M83.4951432,55.8274407 C82.2645319,42.8826414 84.3959568,34.232246 89.8894179,29.8762546 C98.1296095,23.3422673 121.796352,30.8513914 125.60737,21.0196168 C129.418387,11.1878422 127.627214,3.21738139 127.627214,3.55271368e-15" id="Path-2" stroke="#39EA91" stroke-width="4"></path>
                <polygon id="Path-3" fill="#39EA91" points="41.7719391 73.2788073 41.7719391 79.8554551 34.9962173 79.8554551 34.9962173 87.6073798 41.7719391 87.6073798 41.7719391 94.5912122 49.9209065 94.5912122 49.9209065 87.6073798 56.3086221 87.6073798 56.3086221 79.8554551 49.9209065 79.8554551 49.9209065 73.2788073"></polygon>
            </g>
        </g>
    </g>
</svg>