<svg xmlns="http://www.w3.org/2000/svg" xmlns:xlink="http://www.w3.org/1999/xlink" width="366" height="366" viewBox="0 0 366 366"><defs><style>.a,.c,.d,.e{stroke:#39ea91;}.a{stroke-width:8px;fill:url(#a);}.b,.f{fill:#39ea91;}.c,.d,.e{fill:none;}.c,.d{stroke-width:4px;}.c,.f{fill-rule:evenodd;}.e{stroke-width:5px;}.g{fill:#fff;}</style><radialGradient id="a" cx="0.382" cy="0.5" r="1.252" gradientTransform="matrix(-0.53, 0.848, -0.992, -0.62, 1.081, 0.486)" gradientUnits="objectBoundingBox"><stop offset="0" stop-color="#0c305e"/><stop offset="0.119" stop-color="#0c305e"/><stop offset="0.79" stop-color="#456386"/><stop offset="1" stop-color="#456386"/></radialGradient></defs><g transform="translate(-5 -5)"><circle class="a" cx="179" cy="179" r="179" transform="translate(9 9)"/><path class="b" d="M181.976,111.22a5.74,5.74,0,1,0-5.373-5.728A5.559,5.559,0,0,0,181.976,111.22Z" transform="translate(37.9 20.524)"/><path class="b" d="M203.661,111.22a5.74,5.74,0,1,0-5.372-5.728A5.559,5.559,0,0,0,203.661,111.22Z" transform="translate(42.804 20.524)"/><path class="b" d="M192.771,122.236a5.74,5.74,0,1,0-5.372-5.728A5.56,5.56,0,0,0,192.771,122.236Z" transform="translate(40.341 23.016)"/><path class="b" d="M192.771,100.525A5.74,5.74,0,1,0,187.4,94.8,5.559,5.559,0,0,0,192.771,100.525Z" transform="translate(40.341 18.106)"/><path class="b" d="M149.679,133.453H137.962a3.58,3.58,0,0,0,0,7.159h11.717a3.58,3.58,0,0,0,0-7.159Z" transform="translate(28.353 28.143)"/><path class="b" d="M175.758,133.453H164.042a3.58,3.58,0,1,0,0,7.159h11.716a3.58,3.58,0,1,0,0-7.159Z" transform="translate(34.25 28.143)"/><path class="c" d="M200.938,167.381q17.114,47.087,50.141,35.286t19-56.232l-14.385-49.9q-8.911-23.079-27.545-28.07T189.63,78.357H157.805q-20.582-16.432-40.788-9.14T92,95.4L77.521,146.435q-14.691,42.14,18.352,55.551t50.991-34.605Z" transform="translate(14.472 13.11)"/><path class="d" d="M123.854,137.853a28.214,28.214,0,1,0-28.2-28.214A28.209,28.209,0,0,0,123.854,137.853Z" transform="translate(19.594 16.377)"/><path class="d" d="M196.365,137.853a28.214,28.214,0,1,0-28.2-28.214A28.21,28.21,0,0,0,196.365,137.853Z" transform="translate(35.991 16.377)"/><path class="e" d="M156.571,89.065q-2.262-23.808,7.84-31.819c10.1-8.012,37.16.237,43.795-10.859,6.613-11.059,4.16-22.441,4.16-26.386" transform="translate(33.277 2.487)"/><path class="f" d="M116.3,93.779v8.063H108v9.5H116.3v8.563H126.3v-8.563h7.833v-9.5H126.3V93.779Z" transform="translate(22.386 19.171)"/><g transform="translate(72.888 231.066)"><path class="g" d="M81.41,257.032a21.723,21.723,0,0,1-10.575-2.538,19.136,19.136,0,0,1-7.191-7.191,21.723,21.723,0,0,1-2.538-10.575,4.08,4.08,0,0,1,1.269-3.13,4.253,4.253,0,0,1,3.13-1.269,4.334,4.334,0,0,1,4.4,4.4,13.845,13.845,0,0,0,1.438,6.43,11.848,11.848,0,0,0,16.075,4.4,10.918,10.918,0,0,0,4.061-4.4A13.212,13.212,0,0,0,93,236.727V194.51a4.2,4.2,0,0,1,4.315-4.4,4.357,4.357,0,0,1,3.215,1.269,4.08,4.08,0,0,1,1.269,3.13v42.217A21.161,21.161,0,0,1,99.176,247.3a19.136,19.136,0,0,1-7.191,7.191A21.416,21.416,0,0,1,81.41,257.032Zm58.2-.508a25.99,25.99,0,0,1-12.521-2.961,22.759,22.759,0,0,1-8.545-8.291,24.116,24.116,0,0,1-3.046-12.183,24.935,24.935,0,0,1,2.876-12.183,21.262,21.262,0,0,1,8.122-8.291,22.862,22.862,0,0,1,11.844-3.046,20.958,20.958,0,0,1,11.337,2.961,18.432,18.432,0,0,1,7.191,8.037,25.968,25.968,0,0,1,2.538,11.76,3.679,3.679,0,0,1-1.1,2.707,3.956,3.956,0,0,1-2.792,1.015H121.424v-6.768h33.841l-3.469,2.369a17.81,17.81,0,0,0-1.692-7.53,12.283,12.283,0,0,0-11.76-7.276,15.622,15.622,0,0,0-8.291,2.115,13.661,13.661,0,0,0-5.161,5.838,18.656,18.656,0,0,0-1.777,8.291,16.19,16.19,0,0,0,2.115,8.291,15.454,15.454,0,0,0,5.838,5.753,16.993,16.993,0,0,0,8.545,2.115,16.328,16.328,0,0,0,5.33-.931,17.418,17.418,0,0,0,4.484-2.284,4.5,4.5,0,0,1,2.707-.931,3.6,3.6,0,0,1,2.623.846,4.008,4.008,0,0,1,1.523,2.792,3,3,0,0,1-1.354,2.623,23.318,23.318,0,0,1-7.191,3.723A25.2,25.2,0,0,1,139.614,256.524Zm48.441,0a21.347,21.347,0,0,1-11.252-2.961,21.608,21.608,0,0,1-7.614-8.291,25.866,25.866,0,0,1-2.792-12.183,24.361,24.361,0,0,1,2.961-12.183,21.683,21.683,0,0,1,8.291-8.291,25.383,25.383,0,0,1,24.112,0,21.094,21.094,0,0,1,8.206,8.291,23.822,23.822,0,0,1,3.046,12.183h-4.992a27.244,27.244,0,0,1-2.623,12.183,20.664,20.664,0,0,1-7.022,8.291A18.3,18.3,0,0,1,188.055,256.524Zm1.523,18.866a27.018,27.018,0,0,1-11.252-2.369,23.667,23.667,0,0,1-8.883-6.937,3.738,3.738,0,0,1-.846-2.961,3.935,3.935,0,0,1,1.692-2.453,3.989,3.989,0,0,1,3.13-.677,4.331,4.331,0,0,1,2.707,1.692,15.6,15.6,0,0,0,5.753,4.484,18.5,18.5,0,0,0,7.868,1.607,14.671,14.671,0,0,0,7.445-1.946,13.9,13.9,0,0,0,5.5-5.753,19.566,19.566,0,0,0,2.03-9.306V238.758l2.792-7.445,5.5,1.777v18.274a24.8,24.8,0,0,1-2.961,12.1,22.394,22.394,0,0,1-8.291,8.714A22.842,22.842,0,0,1,189.578,275.391Zm.169-26.481a14.832,14.832,0,0,0,7.783-2.03,13.9,13.9,0,0,0,5.245-5.584,18.278,18.278,0,0,0,0-16.413,13.772,13.772,0,0,0-5.245-5.668,15.933,15.933,0,0,0-15.567,0,14.352,14.352,0,0,0-5.33,5.668,18.278,18.278,0,0,0,0,16.413,14.5,14.5,0,0,0,5.33,5.584A14.832,14.832,0,0,0,189.747,248.91Zm52.946,7.276a14.07,14.07,0,0,1-7.614-2.115,15.463,15.463,0,0,1-5.33-5.922,17.805,17.805,0,0,1-1.946-8.376V199.417a4.232,4.232,0,1,1,8.46,0v40.356a8.681,8.681,0,0,0,1.861,5.668,5.687,5.687,0,0,0,4.569,2.284h2.876a3.206,3.206,0,0,1,2.538,1.184,4.3,4.3,0,0,1,1.1,3.046A3.767,3.767,0,0,1,247.769,255a5.2,5.2,0,0,1-3.553,1.184Zm-18.782-37.31a4.073,4.073,0,0,1-2.876-1.015,3.31,3.31,0,0,1-1.1-2.538,3.507,3.507,0,0,1,1.1-2.707,4.073,4.073,0,0,1,2.876-1.015h19.543a4.073,4.073,0,0,1,2.876,1.015,3.507,3.507,0,0,1,1.1,2.707,3.31,3.31,0,0,1-1.1,2.538,4.073,4.073,0,0,1-2.876,1.015ZM268.1,276.491a5.328,5.328,0,0,1-2.03-.508q-3.723-1.692-2.03-5.33l25.8-58.291q1.692-3.553,5.33-2.03,3.807,1.607,2.115,5.33L271.4,273.868Q270.388,276.491,268.1,276.491Zm9.983-22.166a4.107,4.107,0,0,1-3.046.169,4.614,4.614,0,0,1-2.2-2.2l-19.374-36.8a3.462,3.462,0,0,1-.254-3.046,4.163,4.163,0,0,1,2.284-2.2,3.945,3.945,0,0,1,5.245,2.03l18.528,36.8a4.889,4.889,0,0,1,.592,3.13A2.589,2.589,0,0,1,278.087,254.325Z" transform="translate(-61.105 -190.111)"/></g></g></svg>